<?xml version="1.0" encoding="UTF-8"?>
<svg id="Layer_2" data-name="Layer 2" xmlns="http://www.w3.org/2000/svg" xmlns:xlink="http://www.w3.org/1999/xlink" viewBox="0 0 697.82 734.95">
  <defs>
    <style>
      .cls-1 {
        fill: url(#linear-gradient);
      }
    </style>
    <linearGradient id="linear-gradient" x1="0" y1="367.48" x2="697.82" y2="367.48" gradientUnits="userSpaceOnUse">
      <stop offset="0" stop-color="#2a358b"/>
      <stop offset="0" stop-color="#2a358b"/>
      <stop offset="1" stop-color="#33b7d5"/>
    </linearGradient>
  </defs>
  <g id="Layer_1-2" data-name="Layer 1">
    <path class="cls-1" d="m468.57,102.85h-188.86v106.83h188.86v-106.83Zm-9.3,97.53h-170.25v-88.23h170.25v88.23Zm-93.89-40.57c.97,1.97,1.91,3.57,3.03,5.53.35.62.8,1.17,1.22,1.74,1.36,1.84,3.1,3.45,5.1,4.57.91.51,1.87.94,2.84,1.32,1.15.44,2.36.75,3.59.9.08.02.13.02.13.02.04,0,.08,0,.12,0,.56.06,1.12.1,1.69.1.52,0,1.03-.03,1.53-.08,6.65-.66,12.01-5.55,13.24-11.87.19-.88.27-1.78.27-2.67,0-.03,0-.07,0-.1,0-.07,0-.13,0-.2,0-.02,0-.04,0-.06-.02-.83-.1-1.64-.25-2.43-.19-1.17-.46-2.06-.83-2.88-.24-.53-.48-1.06-.76-1.57-.12-.21-.24-.41-.37-.61-.14-.21-.29-.41-.45-.62-.14-.17-.28-.35-.43-.51-1.96-2.29-4.6-3.73-7.54-3.81-3.29-.09-6.3,1.55-8.45,4.23-.02.02-.04.05-.06.08-.11.14-.23.27-.33.42-.22.29-.41.6-.59.91-.53.94-.89,1.97-1.14,3.02-.12.49-.22.98-.29,1.48-.02.18-.01.4-.07.57.1-.32.24-.62.39-.91,1.11-2.34,3.48-3.96,6.24-3.96,3.82,0,6.91,3.1,6.91,6.93,0,2.03-.88,3.85-2.26,5.12-.33.32-.68.6-1.08.84-.7.43-1.4.68-2.09.8-.48.1-.97.16-1.48.16-.9,0-1.8-.18-2.63-.52-.82-.34-1.58-.81-2.28-1.34-.69-.53-1.37-1.09-1.99-1.71-.14-.14-.28-.29-.41-.45-1.08-1.23-1.87-2.72-2.42-4.25-.35-.97-.63-1.96-.84-2.96-.41-2.02-.39-4.09-.22-6.13.04-.51.09-1.02.15-1.53.09-.8.26-1.56.44-2.34.29-1.3.58-2.6.88-3.91.13-.57.25-1.13.38-1.7.06-.28.19-.61.19-.89-.1.07-.16.17-.24.26-.29.32-.58.65-.87.97-.47.52-.93,1.04-1.4,1.56-.61.68-1.22,1.37-1.84,2.05-.73.82-1.46,1.63-2.19,2.45-.82.91-1.64,1.83-2.46,2.74-.88.98-1.76,1.96-2.64,2.95-.91,1.02-1.82,2.03-2.73,3.05-.91,1.02-1.82,2.04-2.73,3.05-.88.99-1.77,1.97-2.65,2.96-.83.92-1.66,1.85-2.48,2.77-.74.83-1.48,1.66-2.23,2.49-.63.7-1.26,1.4-1.88,2.1-.48.54-.97,1.08-1.45,1.62-.31.35-.62.7-.94,1.05-.11.12-.22.25-.33.37l10.81.02,9.19-11.19Zm20.88-10.33c-4.17,0-7.76,2.9-9.44,7.1,1.32-5.08,5.29-8.77,9.99-8.77,5.77,0,10.46,5.57,10.46,12.45,0,1.92-.36,3.73-1.01,5.35.3-1.16.46-2.4.46-3.68,0-6.88-4.68-12.45-10.46-12.45Zm-84.53-12.83l-6.58-6.58,11.41-11.41,6.58,6.58-11.41,11.41Zm-3.84,12.98l28.23-28.23,6.58,6.58-28.23,28.23-6.58-6.58Zm-178.08,11.66h106.05l.67-3.85c.26-1.48.39-2.99.39-4.49,0-14.54-11.83-26.37-26.38-26.37-5.49,0-10.79,1.71-15.19,4.81-6.83-9.43-17.74-15.08-29.65-15.08-20.21,0-36.65,16.44-36.65,36.64,0,1.46.09,2.89.25,4.26l.5,4.08Zm35.89-35.68c10.39,0,19.75,5.76,24.43,15.04l3.09,6.12,4.54-5.14c3.23-3.65,7.89-5.75,12.78-5.75,9.1,0,16.55,7.14,17.05,16.11h-89.23c.51-14.63,12.57-26.38,27.33-26.38Zm30.72-87.35l-4.02-8.39c5.17-2.48,10.99-2.79,16.4-.88.78.28,1.54.61,2.27.96.18-.8.4-1.59.67-2.38,1.91-5.41,5.8-9.75,10.97-12.22l4.02,8.39c-2.93,1.4-5.14,3.86-6.22,6.92-1.08,3.06-.9,6.36.5,9.29l-8.39,4.02c-1.4-2.93-3.86-5.14-6.92-6.22s-6.36-.9-9.29.5Zm-18.79,42.63l-4.02-8.39c8.71-4.17,18.54-3.39,26.28,1.21.26-1.82.7-3.62,1.32-5.39,2.47-7.01,7.53-12.65,14.24-15.86l4.02,8.39c-4.47,2.14-7.83,5.89-9.48,10.56s-1.38,9.7.76,14.17l-8.39,4.02c-4.42-9.22-15.51-13.13-24.73-8.72Zm58.02-27.59l-4.02-8.39c4.79-2.3,10.1-2.26,14.67-.38.09-.3.17-.61.27-.91,1.6-4.55,4.88-8.2,9.23-10.28l4.02,8.39c-2.11,1.01-3.7,2.78-4.47,4.98-.78,2.2-.65,4.58.36,6.68l-8.39,4.02c-2.08-4.35-7.32-6.2-11.67-4.11Zm471.61,187.61c-4.03-29.19-29.32-51.2-58.83-51.2-24.09,0-45.4,14.28-54.64,36.07-5.86-2.8-12.28-4.26-18.86-4.26-10.18,0-19.92,3.56-27.64,9.86l-9.58-2.51c-5.02-3.85-11.25-6.04-17.89-6.04-1.36,0-2.69.09-4,.28l-20.06-5.28v-113.79h103.17l1.37-2.2c2.57-4.15,3.94-8.96,3.94-13.89,0-14.61-11.89-26.49-26.49-26.49-8.38,0-16.03,3.87-20.95,10.26-7.27-7.24-17.17-11.42-27.6-11.42-5.68,0-11.23,1.22-16.33,3.57-1.61-3.68-3.61-7.11-5.93-10.25l34.45-48.22-7.57-5.41-33.22,46.5c-9.55-8.94-22.33-14.22-36.14-14.22-26.26,0-48.78,19.6-52.36,45.57-.34,2.37-.51,4.83-.51,7.31,0,.42.01.85.02,1.27h-139.06v131.4l-75.18,19.76v5.24s0,0,0,0v19.07h43.2v29.5h25.02v20.8c-4.19,1.11-8.19,2.77-11.95,4.96-5.8-16.84-21.69-28.46-40.06-28.46-4.98,0-9.95.89-14.6,2.59-9.23-21.45-30.36-35.54-54.07-35.54-14.85,0-29.02,5.54-39.92,15.6-9.33,8.6-15.55,19.85-17.9,32.16-5.84-1.91-11.94-2.87-18.2-2.87-32.46,0-58.87,26.41-58.87,58.87v4.65h275.59v370.78h18.43s30.17,0,30.17,0h0s13.17,0,13.17,0h0s30.17,0,30.17,0h0s13.17,0,13.17,0h0s30.17,0,30.17,0h0s13.17,0,13.17,0h0s30.17,0,30.17,0h0s18.42,0,18.42,0v-409.13h20.02v-34.42h25.02v-21.49h176.5l1.01-3.27c.95-3.04,1.65-6.18,2.07-9.31.37-2.69.57-5.45.57-8.22s-.2-5.54-.57-8.2ZM411.29,79.14c2.95-21.4,21.51-37.55,43.15-37.55,19.08,0,35.77,12.2,41.53,30.35l1.86,5.83,5.12-3.34c4.83-3.15,10.45-4.82,16.24-4.82,9.75,0,18.9,4.8,24.48,12.83l4.91,7.08,3.22-7.99c2.64-6.54,8.89-10.76,15.94-10.76,9.48,0,17.19,7.71,17.19,17.19,0,2.36-.48,4.67-1.4,6.79h-97.78v-8.31h-74.85c-.02-.42-.03-.85-.03-1.27,0-2.04.14-4.06.42-6.03Zm65.16,16.6v121.07h-204.62v-121.07h204.62Zm-208.54,130.37h212.47l11.03,3.21c-1.56,1.26-3,2.68-4.28,4.22h-244.77l25.56-7.43Zm-71.26,16.73h285.28c-1.01,2.96-1.56,6.14-1.56,9.44,0,.11,0,.22.01.33H196.65v-9.77Zm263.92,73.68h-13.48v-25.11h13.48v25.11Zm-150.14,0v-25.11h13.48v25.11h-13.48Zm22.78,0v-25.11h13.48v25.11h-13.48Zm22.78,0v-25.11h13.48v25.11h-13.48Zm22.78,0v-25.11h13.48v25.11h-13.48Zm22.78,0v-25.11h13.48v25.11h-13.48Zm22.78,0v-25.11h13.48v25.11h-13.48Zm-136.67-25.11h13.48v25.11h-9.64c-1.25-.68-2.53-1.31-3.84-1.88v-23.23Zm-22.78,0h13.48v20.25c-3.28-.7-6.69-1.07-10.18-1.07-1.11,0-2.2.04-3.3.1v-19.28Zm-206,18.54c7.01,0,13.77,1.43,20.1,4.25l5.97,2.67.56-6.52c1.05-12.32,6.65-23.74,15.78-32.16,9.17-8.47,21.11-13.13,33.61-13.13,21.4,0,40.31,13.63,47.04,33.91l1.71,5.15,4.83-2.48c4.7-2.41,9.78-3.63,15.09-3.63,16.2,0,29.92,11.56,32.62,27.5l1.31,7.73,6.16-4.86c3.63-2.87,7.65-5.04,11.92-6.46,4-1.35,8.24-2.03,12.6-2.03,2.54,0,5.02.24,7.42.7.67.13,1.34.28,2.01.44.2.05.39.09.59.15.69.18,1.38.37,2.05.59.73.23,1.45.49,2.16.77.19.07.38.16.57.23.51.2,1.01.42,1.5.64.25.12.51.24.76.36.4.19.8.39,1.19.6.32.17.63.33.94.5.56.31,1.12.63,1.67.96,7.44,4.63,13.24,11.65,16.32,19.98.56,1.51,1.03,3.06,1.41,4.65.33,1.44.59,2.91.77,4.41H9.51c2.35-25.16,23.59-44.92,49.36-44.92Zm404.46,415.7h-9.12v-343.47c0-8.32-6.77-15.09-15.09-15.09s-15.09,6.77-15.09,15.09v343.47h-13.17v-343.47c0-8.32-6.77-15.09-15.09-15.09s-15.09,6.77-15.09,15.09v343.47h-13.17v-343.47c0-8.32-6.77-15.09-15.09-15.09s-15.09,6.77-15.09,15.09v343.47h-13.17v-343.47c0-8.32-6.77-15.09-15.09-15.09s-15.09,6.77-15.09,15.09v343.47h-9.13v-361.48h32.21v-4.65c0-1.49-.07-2.96-.2-4.41h146.43v370.54Zm-29.99,0v-343.47c0-3.19,2.6-5.79,5.79-5.79s5.79,2.6,5.79,5.79v343.47h-11.57Zm-43.34,0v-343.47c0-3.19,2.59-5.79,5.79-5.79s5.79,2.6,5.79,5.79v343.47h-11.57Zm-43.34,0v-343.47c0-3.19,2.6-5.79,5.79-5.79s5.79,2.6,5.79,5.79v343.47h-11.57Zm-43.34,0v-343.47c0-3.19,2.59-5.79,5.79-5.79s5.79,2.6,5.79,5.79v343.47h-11.57Zm11.82-379.84c-2.21-7.58-6.22-14.4-11.52-19.98h159.71v19.98h-148.19Zm168.21-29.29h-10.72s-2.76,0-2.76,0v-25.11h13.48v25.11Zm25.02-34.41h-15.72s-22.78,0-22.78,0h-168.75s-61.27,0-61.27,0v-19.99h242.2c.53,1.53,1.21,3.01,2.01,4.43.21.4.44.78.68,1.17l1.36,2.19h22.26v12.2Zm179.66-26.05c-.2,1.53-.48,3.05-.84,4.55h-195.72c-.49-1.08-.89-2.2-1.17-3.36-.19-.72-.33-1.45-.43-2.19-.06-.37-.1-.74-.12-1.11-.04-.37-.06-.75-.06-1.13-.01-.07-.01-.15-.01-.22-.01-.11-.01-.22-.01-.33,0-3.41.85-6.62,2.35-9.44,2.25-4.21,5.94-7.54,10.42-9.3.52-.21,1.05-.39,1.59-.55,1.83-.55,3.77-.85,5.78-.85,7.54,0,14.31,4.14,17.78,10.7.33.61.62,1.25.89,1.91l3.17,7.86.05.13.09-.13,4.82-6.95c.68-.98,1.41-1.93,2.19-2.82,2.96-3.45,6.55-6.25,10.54-8.27,4.76-2.42,10.1-3.74,15.58-3.74,6.7,0,13.2,1.92,18.78,5.57l5.12,3.34,1.86-5.83c6.63-20.87,25.81-34.89,47.74-34.89,24.89,0,46.22,18.56,49.62,43.19.32,2.24.48,4.56.48,6.91s-.16,4.66-.49,6.95Zm-141.96,76.89l61.62,55.53-6.23,6.91-61.62-55.53,6.23-6.91Zm-38.17,31.57l13.64,20.47-7.74,5.16-13.64-20.47,7.74-5.16Zm2.51-205.86l117.73-11.28.89,9.26-117.73,11.28-.89-9.26Zm-278.3,223.87l7.18,5.91-23.33,28.36-7.18-5.91,23.33-28.36Zm-89.82-162.17l26.03-4,1.41,9.19-26.03,4-1.41-9.19Zm-54.02-25.99l-.27-9.3,111.09-3.23.27,9.3-111.09,3.23ZM367.37,63.32h-9.3V27.44h9.3v35.88Zm-60.3,3.16l-13.74-64.33,9.1-1.94,13.74,64.33-9.1,1.94Z"/>
  </g>
</svg>