<?xml version="1.0" encoding="UTF-8"?>
<svg id="Layer_2" data-name="Layer 2" xmlns="http://www.w3.org/2000/svg" xmlns:xlink="http://www.w3.org/1999/xlink" viewBox="0 0 820.57 185.16">
  <defs>
    <style>
      .cls-1 {
        fill: url(#linear-gradient);
      }

      .cls-2 {
        fill: url(#linear-gradient-2);
      }
    </style>
    <linearGradient id="linear-gradient" x1="313.81" y1="111.39" x2="820.57" y2="111.39" gradientUnits="userSpaceOnUse">
      <stop offset=".21" stop-color="#374a9e"/>
      <stop offset=".34" stop-color="#374ea0"/>
      <stop offset=".47" stop-color="#385aa8"/>
      <stop offset=".6" stop-color="#3a6fb5"/>
      <stop offset=".73" stop-color="#3d8bc8"/>
      <stop offset=".86" stop-color="#41b0df"/>
      <stop offset=".99" stop-color="#45ddfc"/>
      <stop offset="1" stop-color="#46e2ff"/>
    </linearGradient>
    <linearGradient id="linear-gradient-2" x1="0" y1="92.58" x2="275.62" y2="92.58" xlink:href="#linear-gradient"/>
  </defs>
  <g id="Layer_2-2" data-name="Layer 2">
    <path class="cls-1" d="m348.46,70.1l-34.65,82.59h21.7l6.07-16.22h31.96l6.42,16.22h22.17l-34.3-82.59h-19.37Zm-1.17,50.4l10.5-28.35,10.27,28.35h-20.76Zm372.83-50.4h-85.51l.47,53.9h-.35l-33.13-53.9h-22.75v76.69l-31.85-76.69h-19.37l-27.35,65.21h-29.11v-65.21h-86.44v17.03h23.33v65.56h19.95v-65.56h23.1v65.56h63.58l6.07-16.22h31.96l6.42,16.22h39.08l-.47-54.01h.35l33.25,54.01h22.63v-65.56h23.1v65.56h19.95v-65.56h23.1v65.56h20.07v-82.59h-20.07Zm-193.65,50.4l10.5-28.35,10.27,28.35h-20.76Zm294.09,20.77c-3.66,4.2-8.17,7.52-13.53,9.97-5.37,2.45-11.55,3.67-18.55,3.67-6.38,0-12.27-1.05-17.67-3.15-5.41-2.1-10.09-5.07-14.06-8.92-3.97-3.85-7.08-8.46-9.33-13.82-2.26-5.37-3.38-11.28-3.38-17.73s1.15-12.6,3.44-17.96c2.29-5.37,5.46-9.93,9.51-13.71,4.04-3.77,8.79-6.67,14.23-8.69,5.44-2.02,11.31-3.03,17.61-3.03,5.83,0,11.57,1.03,17.21,3.09,5.64,2.06,10.21,5.07,13.71,9.04l-13.53,13.53c-1.87-2.57-4.32-4.47-7.35-5.72-3.03-1.24-6.15-1.87-9.33-1.87-3.5,0-6.71.64-9.62,1.92-2.92,1.28-5.43,3.05-7.52,5.31-2.1,2.26-3.73,4.92-4.9,7.99-1.17,3.07-1.75,6.44-1.75,10.09s.58,7.16,1.75,10.27c1.17,3.11,2.78,5.77,4.84,7.99,2.06,2.22,4.53,3.95,7.41,5.19,2.88,1.24,6.03,1.87,9.45,1.87,3.97,0,7.43-.78,10.38-2.33,2.96-1.55,5.33-3.58,7.12-6.07l13.88,13.07Z"/>
    <path class="cls-2" d="m275.59,107.21c0-.11,0-.22,0-.33-.08-4.34-.52-8.58-1.31-12.71-.99-6.1-2.39-10.76-4.34-15.03-1.27-2.77-2.52-5.55-4-8.2-.6-1.09-1.24-2.16-1.94-3.19-.75-1.1-1.53-2.17-2.35-3.21-.71-.91-1.46-1.8-2.22-2.67-10.22-11.98-24.03-19.49-39.39-19.9-17.21-.45-32.93,8.1-44.12,22.11-.1.13-.21.25-.33.4-.6.71-1.19,1.43-1.74,2.18-1.12,1.52-2.14,3.11-3.06,4.76-2.75,4.91-4.64,10.3-5.97,15.75-.62,2.55-1.13,5.13-1.49,7.74-.13.92-.05,2.11-.35,3,.54-1.65,1.23-3.23,2.02-4.74,5.8-12.21,18.19-20.67,32.58-20.67,19.94,0,36.1,16.2,36.1,36.18,0,10.6-4.58,20.11-11.83,26.72-1.71,1.66-3.58,3.13-5.65,4.41-3.64,2.25-7.33,3.54-10.92,4.19-2.49.54-5.06.85-7.71.85-4.71,0-9.41-.93-13.76-2.73-4.28-1.78-8.25-4.23-11.92-7.02-3.61-2.74-7.17-5.71-10.37-8.92-.75-.75-1.46-1.53-2.16-2.33-5.64-6.41-9.76-14.23-12.64-22.21-1.82-5.05-3.31-10.22-4.37-15.48-2.14-10.54-2.01-21.34-1.14-32.01.22-2.68.47-5.35.76-8.01.46-4.16,1.36-8.16,2.28-12.24,1.53-6.8,3.05-13.61,4.58-20.41.66-2.95,1.32-5.9,1.99-8.86.32-1.45.97-3.17.99-4.62-.51.37-.86.89-1.27,1.35-1.51,1.69-3.02,3.38-4.54,5.07-2.43,2.72-4.86,5.43-7.29,8.15-3.2,3.57-6.4,7.15-9.6,10.72-3.81,4.26-7.63,8.52-11.44,12.78-4.28,4.78-8.56,9.56-12.84,14.34-4.59,5.13-9.18,10.26-13.77,15.38-4.75,5.31-9.5,10.61-14.26,15.92-4.76,5.32-9.52,10.63-14.28,15.95-4.62,5.16-9.24,10.32-13.85,15.47-4.32,4.83-8.65,9.66-12.97,14.49-3.88,4.33-7.76,8.66-11.63,12.99-3.28,3.66-6.56,7.33-9.84,10.99-2.53,2.83-5.06,5.65-7.59,8.48-1.63,1.82-3.26,3.64-4.89,5.46-.58.64-1.15,1.29-1.73,1.93l56.46.08,48.02-58.47c5.07,10.27,10,18.66,15.85,28.91,1.84,3.22,4.18,6.1,6.37,9.07,7.11,9.64,16.17,18.02,26.64,23.85,4.76,2.65,9.74,4.91,14.83,6.87,6.02,2.32,12.33,3.91,18.73,4.71.43.08.67.12.67.12.21.02.4.02.6.04,2.9.32,5.85.5,8.84.5,2.71,0,5.38-.15,8.01-.41,34.71-3.44,62.74-28.97,69.18-62,.99-4.58,1.43-9.29,1.4-13.96,0-.17.01-.34.01-.51,0-.35-.02-.7-.03-1.06Zm-9.86,34.17c1.58-6.07,2.43-12.53,2.43-19.22,0-35.91-24.45-65.02-54.61-65.02-21.76,0-40.54,15.15-49.32,37.07,6.88-26.53,27.64-45.81,52.18-45.81,30.16,0,54.61,29.11,54.61,65.02,0,10.01-1.9,19.48-5.29,27.95Z"/>
  </g>
</svg>