<?xml version="1.0" encoding="UTF-8"?>
<svg id="Layer_2" data-name="Layer 2" xmlns="http://www.w3.org/2000/svg" xmlns:xlink="http://www.w3.org/1999/xlink" viewBox="0 0 370.32 370.32">
  <defs>
    <style>
      .cls-1 {
        fill: url(#linear-gradient);
      }

      .cls-2 {
        fill: url(#linear-gradient-3);
      }

      .cls-3 {
        fill: url(#linear-gradient-2);
      }
    </style>
    <linearGradient id="linear-gradient" x1="43.21" y1="294.23" x2="324.62" y2="294.23" gradientUnits="userSpaceOnUse">
      <stop offset=".21" stop-color="#374a9e"/>
      <stop offset=".34" stop-color="#374ea0"/>
      <stop offset=".47" stop-color="#385aa8"/>
      <stop offset=".6" stop-color="#3a6fb5"/>
      <stop offset=".73" stop-color="#3d8bc8"/>
      <stop offset=".86" stop-color="#41b0df"/>
      <stop offset=".99" stop-color="#45ddfc"/>
      <stop offset="1" stop-color="#46e2ff"/>
    </linearGradient>
    <linearGradient id="linear-gradient-2" x1="0" y1="185.16" x2="370.32" y2="185.16" xlink:href="#linear-gradient"/>
    <linearGradient id="linear-gradient-3" x1="56.58" y1="139.7" x2="318.67" y2="139.7" xlink:href="#linear-gradient"/>
  </defs>
  <g id="Layer_2-2" data-name="Layer 2">
    <g>
      <path class="cls-1" d="m62.45,271.3l-19.24,45.87h12.05l3.37-9h17.75l3.56,9h12.31l-19.05-45.87h-10.75Zm-.65,27.99l5.83-15.74,5.7,15.74h-11.53Zm262.81,11.53c-2.03,2.33-4.54,4.18-7.51,5.54-2.98,1.36-6.41,2.04-10.3,2.04-3.54,0-6.81-.58-9.81-1.75-3-1.17-5.6-2.82-7.81-4.96-2.2-2.14-3.93-4.7-5.18-7.68-1.25-2.98-1.88-6.26-1.88-9.85s.64-7,1.91-9.98c1.27-2.98,3.03-5.52,5.28-7.61,2.25-2.09,4.88-3.7,7.9-4.83,3.02-1.12,6.28-1.68,9.78-1.68,3.24,0,6.42.57,9.55,1.72,3.13,1.15,5.67,2.82,7.61,5.02l-7.51,7.51c-1.04-1.43-2.4-2.48-4.08-3.17-1.68-.69-3.41-1.04-5.18-1.04-1.94,0-3.73.36-5.34,1.07-1.62.71-3.01,1.7-4.18,2.95-1.17,1.25-2.07,2.73-2.72,4.44-.65,1.71-.97,3.57-.97,5.6s.32,3.97.97,5.7c.65,1.73,1.54,3.21,2.69,4.44,1.14,1.23,2.52,2.19,4.11,2.88,1.6.69,3.35,1.04,5.25,1.04,2.2,0,4.12-.43,5.76-1.3,1.64-.86,2.96-1.99,3.95-3.37l7.71,7.26Zm-55.78-39.52h-47.48l.26,29.93h-.19l-18.4-29.93h-12.63v42.59l-17.69-42.59h-10.75l-15.19,36.21h-16.16v-36.21h-48v9.46h12.96v36.41h11.08v-36.41h12.83v36.41h35.3l3.37-9h17.75l3.56,9h21.7l-.26-29.99h.19l18.46,29.99h12.57v-36.41h12.83v36.41h11.08v-36.41h12.83v36.41h11.14v-45.87h-11.14Zm-107.54,27.99l5.83-15.74,5.7,15.74h-11.53Z"/>
      <path class="cls-3" d="m370.32,370.32H0V0h370.32v370.32Zm-355.32-15h340.32V15H15v340.32Z"/>
      <path class="cls-2" d="m318.64,153.62c0-.11,0-.21,0-.31-.07-4.12-.5-8.16-1.24-12.09-.94-5.8-2.27-10.24-4.13-14.29-1.2-2.63-2.4-5.28-3.8-7.8-.57-1.03-1.18-2.05-1.84-3.03-.71-1.04-1.46-2.06-2.24-3.06-.68-.87-1.39-1.71-2.12-2.54-9.71-11.4-22.85-18.54-37.46-18.92-16.36-.43-31.31,7.71-41.95,21.03-.1.12-.2.23-.31.38-.57.68-1.13,1.36-1.65,2.07-1.07,1.45-2.04,2.96-2.91,4.53-2.61,4.67-4.41,9.79-5.68,14.98-.59,2.43-1.07,4.88-1.42,7.36-.12.88-.05,2.01-.33,2.85.52-1.57,1.17-3.07,1.92-4.51,5.51-11.61,17.3-19.66,30.98-19.66,18.96,0,34.33,15.4,34.33,34.4,0,10.08-4.35,19.12-11.25,25.41-1.63,1.58-3.4,2.98-5.37,4.2-3.46,2.14-6.97,3.37-10.38,3.99-2.36.52-4.81.81-7.33.81-4.48,0-8.95-.88-13.08-2.6-4.07-1.69-7.84-4.02-11.34-6.68-3.43-2.61-6.81-5.43-9.86-8.49-.71-.71-1.39-1.46-2.05-2.21-5.36-6.1-9.29-13.53-12.02-21.12-1.73-4.8-3.15-9.72-4.16-14.72-2.03-10.02-1.92-20.29-1.09-30.44.21-2.55.45-5.09.73-7.62.43-3.95,1.3-7.76,2.17-11.64,1.45-6.47,2.9-12.94,4.35-19.41.63-2.81,1.26-5.61,1.89-8.42.31-1.37.92-3.01.94-4.4-.48.35-.81.84-1.2,1.28-1.44,1.61-2.88,3.21-4.31,4.82-2.31,2.58-4.62,5.16-6.94,7.75-3.04,3.4-6.08,6.79-9.13,10.19-3.63,4.05-7.25,8.1-10.88,12.15-4.07,4.54-8.14,9.09-12.21,13.63-4.37,4.88-8.73,9.75-13.1,14.63-4.52,5.05-9.04,10.09-13.56,15.14-4.53,5.06-9.05,10.11-13.58,15.17-4.39,4.9-8.78,9.81-13.17,14.71-4.11,4.59-8.22,9.18-12.34,13.78-3.69,4.12-7.37,8.24-11.06,12.36-3.12,3.48-6.24,6.97-9.36,10.45-2.41,2.69-4.81,5.38-7.22,8.06-1.55,1.73-3.1,3.46-4.65,5.19-.55.61-1.1,1.23-1.65,1.84l53.69.08,45.66-55.6c4.82,9.77,9.51,17.75,15.07,27.49,1.75,3.06,3.97,5.8,6.06,8.63,6.76,9.16,15.37,17.14,25.34,22.68,4.53,2.52,9.27,4.67,14.1,6.54,5.73,2.21,11.72,3.71,17.81,4.48.41.08.64.11.64.11.2.02.38.02.57.04,2.76.3,5.56.47,8.41.47,2.57,0,5.11-.14,7.62-.39,33.01-3.27,59.66-27.55,65.79-58.96.94-4.36,1.36-8.84,1.33-13.28,0-.16.01-.33.01-.49,0-.34-.02-.67-.03-1Zm-9.38,32.49c1.5-5.78,2.31-11.91,2.31-18.27,0-34.15-23.25-61.83-51.93-61.83-20.69,0-38.55,14.41-46.9,35.25,6.55-25.23,26.29-43.56,49.62-43.56,28.68,0,51.93,27.68,51.93,61.83,0,9.52-1.81,18.53-5.03,26.58Z"/>
    </g>
  </g>
</svg>