<?xml version="1.0" encoding="UTF-8"?>
<svg id="Layer_2" data-name="Layer 2" xmlns="http://www.w3.org/2000/svg" xmlns:xlink="http://www.w3.org/1999/xlink" viewBox="0 0 840.07 673.23">
  <defs>
    <style>
      .cls-1 {
        fill: url(#linear-gradient);
      }
    </style>
    <linearGradient id="linear-gradient" x1="0" y1="336.61" x2="840.07" y2="336.61" gradientUnits="userSpaceOnUse">
      <stop offset="0" stop-color="#2a358b"/>
      <stop offset="0" stop-color="#2a358b"/>
      <stop offset="1" stop-color="#33b7d5"/>
    </linearGradient>
  </defs>
  <g id="Layer_1-2" data-name="Layer 1">
    <path class="cls-1" d="m245.78,287.82l-3.06-1.06,4.81-13.88,9.31,3.23-.98,2.82-6.25-2.17-.98,2.82,5.78,2-.98,2.82-5.78-2-1.87,5.41Zm196.52,11l-8.05,3.57c.04-.13.08-.26.12-.39.12-.36.23-.73.35-1.09.18-.56.36-1.13.54-1.69.23-.73.47-1.46.7-2.19.28-.86.55-1.73.83-2.59.31-.96.62-1.92.93-2.89.33-1.03.66-2.06.99-3.08.34-1.06.68-2.12,1.02-3.18.34-1.06.68-2.11,1.02-3.17.33-1.02.66-2.04.98-3.07.31-.95.61-1.9.92-2.86.27-.85.55-1.7.82-2.55.23-.71.46-1.42.69-2.14.17-.54.35-1.08.52-1.62.11-.34.22-.67.32-1.01.03-.09.05-.19.09-.27.09.21.11.49.15.72.09.46.19.92.28,1.39.21,1.07.43,2.13.64,3.2.13.64.25,1.27.45,1.89.13.4.26.79.4,1.19.55,1.58,1.22,3.12,2.2,4.49.49.68,1.03,1.32,1.61,1.93.92.95,2,1.8,3.21,2.36.15.07.3.14.46.19.66.25,1.36.45,2.04.61.7.16,1.42.26,2.14.24.73-.02,1.46-.19,2.13-.48.38-.17.72-.38,1.04-.61.47-.32.91-.74,1.29-1.29.21-.31.39-.64.52-.99.61-1.4.66-3.05-.01-4.56-1.27-2.85-4.6-4.13-7.44-2.86-2.05.91-3.28,2.91-3.33,5.01-.02.27-.01.53.01.8-.01-.14-.1-.31-.14-.45-.11-.39-.21-.79-.28-1.2-.16-.86-.23-1.75-.15-2.62.03-.29.07-.58.13-.87.03-.14.07-.28.11-.42,0-.03.02-.05.02-.08.7-2.71,2.4-4.92,4.88-5.95,2.21-.92,4.66-.73,6.87.33.16.08.33.15.49.24.18.1.36.2.54.31.17.1.32.21.48.33.38.28.73.6,1.09.91.55.48,1.04,1.06,1.57,1.87.37.54.71,1.12.99,1.73,0,.02.02.03.02.05.02.05.05.1.07.15.01.02.02.05.03.07.3.66.54,1.36.69,2.08,1.18,5.11-1.19,10.53-5.92,13.22-.36.2-.73.39-1.11.57-.43.19-.86.35-1.29.49-.03.01-.06.02-.09.03,0,0-.04,0-.1.03-.96.29-1.96.47-2.97.52-.85.04-1.7.04-2.55-.04-1.86-.17-3.68-.78-5.31-1.71-.5-.28-1.02-.55-1.48-.89-1.48-1.09-2.72-1.97-4.09-3.11l-3.13,11.37Zm27.14-20.19c.42.95.71,1.93.87,2.89-.05-1.42-.39-2.89-1.02-4.32-2.28-5.11-7.61-7.71-11.91-5.79-3.5,1.56-5.23,5.62-4.52,9.84-.14-3.68,1.57-7.03,4.67-8.41,4.3-1.91,9.63.68,11.91,5.79Zm258.49,75.36c1.63,1.54,3.33,2.21,4.89,2.21,1.04,0,2-.29,2.82-.81h0c.76-.48,3.19-2.35,2.4-6.41-.27-1.37-.87-2.83-1.75-4.23-.88-1.4-1.93-2.59-3.05-3.42-3.31-2.48-6.05-1.12-6.81-.64-.76.48-3.19,2.35-2.4,6.41.1.51.26,1.04.45,1.56l-8.58,9.77,12.03-4.44Zm-500.5-72.53l10.81-11.8,2.53.88,1.23,15.97-3.45-1.2-.18-3.35-5.39-1.87-2.17,2.54-3.37-1.17Zm7.4-3.63l3.39,1.17-.21-4.9-3.18,3.73Zm-15.3.82c.68.54,1.47.97,2.37,1.28.72.25,1.43.39,2.14.43.71.04,1.38-.04,2-.25.62-.21,1.18-.55,1.66-1.03s.86-1.1,1.13-1.87c.28-.81.35-1.51.2-2.1-.15-.59-.41-1.11-.78-1.57-.38-.45-.81-.85-1.31-1.2-.49-.35-.95-.68-1.38-1-.42-.32-.75-.65-.99-.98-.24-.33-.28-.7-.14-1.12.09-.26.23-.46.43-.6.19-.14.41-.23.66-.26.25-.04.5-.04.75-.01.25.03.49.08.71.16.38.13.75.35,1.13.64.37.3.63.65.77,1.05l2.89-1.57c-.41-.73-.94-1.33-1.59-1.8-.66-.48-1.37-.85-2.16-1.12-.68-.24-1.37-.37-2.08-.4-.71-.03-1.37.06-1.99.26-.62.21-1.18.54-1.67,1-.49.46-.86,1.06-1.12,1.81-.27.77-.32,1.45-.17,2.03.16.58.43,1.1.81,1.55.38.46.83.87,1.33,1.23.5.37.97.72,1.39,1.05.42.34.76.68.99,1.03.24.35.28.74.14,1.16-.09.25-.22.44-.41.58-.19.14-.4.23-.65.28-.24.05-.5.06-.78.03-.28-.03-.54-.09-.79-.17-.51-.18-.96-.46-1.36-.86-.4-.39-.68-.85-.85-1.38l-3,1.64c.45.85,1.02,1.54,1.69,2.08Zm187.18,36.28c.79,2.75,1,8.29-6.41,14.48-4.48,3.75-10.85,6.92-17.93,8.94-5.1,1.45-10.2,2.2-14.82,2.2-1.79,0-3.52-.11-5.14-.34-9.56-1.35-12.3-6.17-13.08-8.92-2.16-7.58,5.51-18.05,24.34-23.43,7.08-2.02,14.17-2.68,19.95-1.86,9.56,1.35,12.3,6.17,13.08,8.92Zm-8.94,2.55h0c-.14-.51-1.67-1.73-5.45-2.27-1.18-.17-2.46-.25-3.8-.25-3.75,0-8.05.63-12.29,1.85-12.96,3.69-18.41,10.31-17.95,11.93.14.51,1.67,1.73,5.45,2.26,4.46.63,10.32.05,16.1-1.6s11.06-4.25,14.52-7.13c2.93-2.45,3.58-4.29,3.43-4.8Zm18.97-32.52c0-19.17,15.59-34.76,34.76-34.76s34.76,15.59,34.76,34.76-15.59,34.76-34.76,34.76-34.76-15.59-34.76-34.76Zm9.3,0c0,14.04,11.42,25.46,25.46,25.46s25.46-11.42,25.46-25.46-11.42-25.46-25.46-25.46-25.46,11.42-25.46,25.46Zm414.03-24.17v9.3h-108.62v40.2c0,6.8-8.45,10.86-22.61,10.86-5.16,0-10.03-.62-13.72-1.76-7.74-2.38-8.9-6.73-8.9-9.1v-40.2h-46.46l4.76-9.3h41.7v-26.3h0c.17-10.72,7.82-19.65,17.95-21.78v-3.6h-7.44v-24.19h24.19v24.19h-7.44v3.6c10.13,2.13,17.79,11.06,17.95,21.78h0v26.3h108.62Zm-134.03-60.99h5.59v-5.59h-5.59v5.59Zm-10.5,34.68h26.59c-.19-7.18-6.07-12.96-13.3-12.96s-13.11,5.78-13.3,12.96Zm26.61,9.3h-26.63v65.75c1.41.93,6.08,2.32,13.31,2.32s11.91-1.39,13.31-2.32v-65.75Zm-117.29-49.65l34.1,2.07.35-9.22-34.1-2.07-.35,9.22Zm49.8-52.35l-74.91,16.62,2.32,8.92,74.91-16.62-2.32-8.92Zm-126.38,16.62l169.9-72.77-3.55-8.59-169.9,72.77,3.55,8.59Zm-344.64,14.66l-136.89-31.91-2.11,9.06,136.89,31.91,2.11-9.06Zm.65,29.53l-4.41-8.19-77.33,41.59,4.41,8.19,77.33-41.59Zm229.4,138.02h70.52v-9.3h-70.52v9.3Zm247.94-42.45l-.25,2.26,16.7,5.16-1.6,14.33-17.42,1.35-.25,2.26-63.91-7.13h0s-13.97-1.56-13.97-1.56l2.83-25.36,23.22,2.59h0s54.66,6.1,54.66,6.1Zm-64.94,2.11l-4.73-.53-.77,6.88,4.73.53.38-3.44.38-3.44Zm54.66,6.1l-45.42-5.07-.38,3.44-.38,3.44,45.42,5.07.77-6.88Zm-138.92,24.94h-19.18v9.3h19.18v-9.3Zm15.33-199.24l80.44-62.93-6.06-7.05-80.44,62.93,6.06,7.05Zm-7.18,208.54h8.3v-9.3h-8.3v9.3Zm13.78,0h8.3v-9.3h-8.3v9.3Zm-14.87-21.4l-25.75-11.81,22.52-49.12,25.75,11.81-22.52,49.12Zm-4.58-12.33l14.77-32.22-8.84-4.05-14.77,32.22,8.84,4.05Zm-120.12-251.93h-54.5l13.56-35.43h27.38l13.56,35.43Zm-40.98-9.3h27.46l-6.44-16.83h-14.58l-6.44,16.83Zm-160.87,104.45L47.11,29.85l-5.92,7.17,145.82,120.28,5.92-7.17Zm419.5,207.75c5.33,0,9.65-1.46,9.65-3.27s-4.32-3.27-9.65-3.27-9.65,1.46-9.65,3.27,4.32,3.27,9.65,3.27ZM218.36,102.85l8.66-3.44-14.63-45.37h12.81l12.46,41.15,8.68-3.44-11.42-37.71h95.29l3.56-9.3h-117.9l12.34-14.97h111.29l3.56-9.3h-31.55l9.21-11.18h89.74l9.21,11.18h-27.65l3.56,9.3h111.67l12.34,14.97h-118.28l3.56,9.3h95.66l-14.21,46.93,6.99-5.77,3.24,4.07,13.69-45.22h12.81l-18.02,55.87,6.96,8.73,20.83-64.6,1.82-5.64-3.01-3.66-20-24.27h-79.92L414.85,0h-98.52l-16.87,20.48h-75.65l-20,24.27-3.01,3.66,1.82,5.64,15.74,48.8Zm-10.72,29.33l.89-2.61-57.54-80.56-7.57,5.41,58.47,81.87,5.74-4.1Zm-115.95,223.96c1.63,1.54,3.33,2.21,4.89,2.21,1.04,0,2-.29,2.82-.81h0c2.61-1.64,3.83-5.57.65-10.65-.88-1.4-1.93-2.59-3.05-3.42-3.31-2.48-6.05-1.12-6.81-.64-.76.48-3.19,2.35-2.4,6.41.1.51.26,1.04.45,1.56l-8.58,9.77,12.03-4.44Zm209.02-61.15l-3.67,10.58,2.82.98,4.81-13.88-2.74-.95-5.85,2.25,1,2.5,3.63-1.49Zm4.98,8.79c.3.33.65.61,1.04.86.39.24.76.47,1.1.69s.61.42.81.63c.2.21.26.44.17.68-.09.26-.29.39-.6.4-.31,0-.63-.05-.97-.17-.44-.15-.8-.38-1.07-.67-.27-.29-.49-.65-.64-1.09l-2.47,1.36c.3.65.76,1.18,1.38,1.61.61.42,1.25.75,1.92.98.51.18,1.04.31,1.6.39.56.08,1.09.08,1.59-.02.5-.1.96-.3,1.36-.6.41-.31.72-.77.93-1.38.21-.6.25-1.12.14-1.57s-.33-.83-.63-1.17c-.3-.34-.65-.63-1.04-.87-.39-.25-.76-.48-1.1-.69-.34-.21-.62-.42-.82-.61-.2-.19-.26-.41-.18-.64.1-.29.29-.45.56-.49.28-.04.54-.01.79.08.71.24,1.18.71,1.43,1.39l2.42-1.16c-.28-.62-.71-1.14-1.29-1.54-.58-.4-1.18-.72-1.81-.93-.5-.17-1.01-.28-1.53-.32-.53-.04-1.02,0-1.48.13-.46.13-.88.36-1.25.69-.37.33-.65.77-.85,1.33-.21.6-.25,1.12-.14,1.57.12.44.33.83.63,1.15Zm9.31-.02l-1.57,4.53c-.18.52-.25,1-.2,1.42.05.43.19.81.43,1.15.23.34.54.63.93.88.38.25.82.46,1.32.63.34.12.69.22,1.06.3.37.08.73.12,1.1.12l.85-2.45c-.17.07-.39.08-.66.03-.27-.06-.48-.11-.63-.17-.31-.11-.55-.24-.71-.39-.16-.15-.26-.32-.3-.51-.04-.19-.03-.4.02-.62.05-.22.12-.47.21-.73l1.1-3.18,2.59.9.81-2.35-2.59-.9.98-2.82-2.94-1.02-.98,2.82-1.88-.65-.81,2.35,1.88.65Zm-43.42-19.52l-3.87,11.17,3.06,1.06,3.87-11.17,3.96,1.37.6-1.72,2.15,8.55-2.05,5.92,3.06,1.06,2.05-5.92,7.97-6.15-3.63-1.26-4.92,4.11-1.14-6.21-3.16-1.09-10.98-3.8-.94,2.7,3.96,1.37Zm-8.22,9.67l.98-2.82-6.72-2.33.98-2.82,6.02,2.09.98-2.82-6.02-2.09.9-2.59,6.37,2.21.98-2.82-9.43-3.27-4.81,13.88,9.78,3.39Zm393.7,87.59h183.02v9.3h-193.23c-7.94,4.78-21.49,7.03-34.41,7.03s-26.47-2.25-34.41-7.03H9.3v20.18h830.77v9.3H195.52v252.95h-54.97v-252.95h-34.81v252.95H28.89v-252.95H0v-36.17l6.52-6.02,80.23-74.04-4.2-7.12-.14-.35c-1.37-3.49-.77-7.52,1.65-11.08,2.08-3.06,5.37-5.59,9.25-7.11,7.18-2.82,14.46-1.58,18.33,2.67l21.96-20.26h23.27v9.3h-19.63l-20.63,19.04,14.71,24.9c.57.76,1.04,1.58,1.39,2.47h0c1.98,5.06-.2,10.81-5.11,14.82l11.34,19.2h.01s8.89,9.07,8.89,9.07l1.26,11.26-6.37,3.26-8.74-6.81-3.07-12.06-11.65-19.74c-1.74.45-3.49.7-5.19.7-1.34,0-2.65-.14-3.89-.43-3.95-.9-6.98-3.23-8.47-6.41l-10.12-17.14-75.04,69.26h554.55c-.02-.25-.04-.51-.04-.77v-26.13c0-11.75,21.46-17.09,41.39-17.09,15.52,0,31.97,3.25,38.49,10.23,10.16-6.35,21.62-8.89,34.16-7.55v.07s8.71,1.78,8.71,1.78l-1.25,6.11,1.44,7.04-1.44,7.04,1.44,7.05-1.63,7.98-8.92-1.82h0c-7-1.8-15.67.19-26.38,6.06Zm-536.98-63.1c-1.38,0-2.88.29-4.33.86-2.13.83-3.94,2.18-4.96,3.69-.65.96-.91,1.87-.68,2.44.22.57,1.03,1.07,2.17,1.33.6.14,1.25.19,1.93.19l-1.11-1.89,8.01-4.73,1.68,2.85c1.03-1.14,1.49-2.28,1.34-3.02l-.4-.67c-.38-.37-1.01-.67-1.82-.86-.56-.13-1.17-.19-1.81-.19Zm-29.06-25.43l13.54,22.92c2.03-2.23,4.72-4.08,7.8-5.29,1.76-.69,3.56-1.13,5.34-1.35l-12.52-21.2-.14-.35c-.53-1.35-4.12-2.3-8.31-.66-2.13.83-3.94,2.18-4.96,3.69-.58.85-.84,1.66-.74,2.23Zm87.56,370.95h7.66v-243.64h-7.66v243.64Zm-28.7,0h19.4v-243.64h-19.4v243.64Zm-69.21,0h15.79v-243.64h-15.79v243.64Zm-42.46,0h33.16v-243.64h-33.16v243.64Zm542.17-309.32c.78,2.21,11.52,7.79,32.08,7.79s31.3-5.58,32.08-7.79c-.78-2.21-11.52-7.79-32.08-7.79s-31.3,5.58-32.08,7.79Zm64.17,11.32c-8.1,3.92-20.36,5.77-32.09,5.77s-23.99-1.86-32.09-5.77v14.81c.58,2.1,11.33,7.79,32.09,7.79s31.46-5.66,32.09-7.84v-14.76Zm9.3,6.75c11.5-6.07,21.38-8.25,29.99-6.66l-.77-3.78,1.44-7.04-1.19-5.82c-11.05-1.02-20.73,1.46-29.47,7.59v15.72Zm-407.2-65.36l5.65,26.48-49.27,10.51-5.65-26.48,49.27-10.51Zm-5.38,19.33l-1.77-8.29-31.08,6.63,1.77,8.29,31.08-6.63Zm-175.69,27.89c-.76-.48-3.51-1.84-6.81.65-1.11.84-2.17,2.02-3.04,3.43-.88,1.4-1.48,2.87-1.75,4.23-.79,4.06,1.64,5.93,2.4,6.41.42.27,1.46.8,2.86.8,1.12,0,2.48-.34,3.95-1.45.42-.31.82-.69,1.21-1.09l12.54,3.45-9.25-8.87c1.13-3.56-.05-6.27-2.11-7.56Zm148.3-106.4l124.35,43.08-12.85,37.09-124.35-43.08,12.85-37.09Zm5.74,11.83l-6.76,19.52,106.78,36.99,6.76-19.52-106.78-36.99Zm355.76-47.46c2.94-1.05,5.94-1.74,8.97-2.09-12.08-25.44-41.81-38.11-68.87-28.41-22.29,7.99-36.32,28.85-36.75,51.23h68.29l-38.09-35.15,7.57-5.67,44.23,40.82h.06v127.35H174.33v-127.35h.06l18.23-16.82c.93,3.91,2.16,7.18,3.27,9.64l-7.78,7.18h18.75l.28-2.12.29.04-1.64-4.18c-9.81-24.99-6.07-53.56,9.67-75.22l-4.67-11.9,18.15-14.25-3.57-9.1,37.7-14.79,3.57,9.1,23-1.9,4.67,11.9c20.15,3.97,37.88,15.73,49.48,32.27l-8.49-26.78c-2.15-6.79,1.62-14.07,8.41-16.22,6.79-2.15,14.07,1.62,16.22,8.41l2,6.31,22.06-42.52c3.28-6.32,11.09-8.8,17.42-5.52,1.18.61,2.24,1.39,3.16,2.31,1.58-1.97,3.71-3.44,6.17-4.22,3.29-1.04,6.79-.74,9.85.85,3.06,1.59,5.32,4.28,6.37,7.57.32,1,.5,2.03.57,3.05,1.85.07,3.71.52,5.45,1.43,5.49,2.85,8.07,9.1,6.52,14.84,1.28.22,2.55.63,3.76,1.26,3.06,1.59,5.32,4.28,6.37,7.57,1.04,3.29.74,6.79-.85,9.85l-15.14,29.18c16.48-12.56,31.58-22.55,42.06-27.72l15.04-12.29,21.83,26.72-11.83,9.66,7.63,9.34-.25,1.98c-.07.57-1.46,10.86-9.33,21.85,4.15-2.71,8.67-5,13.54-6.74,33.02-11.84,69.43,4.87,82.17,37.3,3.91.56,7.75,1.71,11.42,3.44,9.65,4.56,16.96,12.6,20.56,22.65,3.6,10.05,3.08,20.9-1.48,30.56s-12.6,16.96-22.65,20.56c-1.23.44-2.65.75-4.25.75-4.07,0-9.22-1.99-14.94-8.82-4.73-5.64-9.15-13.83-12.45-23.04-3.3-9.21-5.09-18.34-5.03-25.7.11-12.4,5.33-16.87,9.68-18.43Zm-90.58-85.2l10.06,12.31,4.63-3.78-10.06-12.31-4.63,3.78Zm-140.62-3.82l10.97,34.62-4.03,7.76-.07-.03c.53,1.17,1.04,2.35,1.51,3.55l1.63,4.15.11-.13,3.58,2.83c10.45,8.28,14.59,21.44,11.53,33.32l2.88-2.35c8.24-10.63,23.95-25.99,42.81-41.92,1.37-2.35,3.53-6.09,4.26-7.49l21.17-40.81c.45-.86.53-1.84.24-2.76-.29-.92-.93-1.67-1.78-2.12-1.77-.92-3.96-.23-4.88,1.55l-17.19,33.13-8.26-4.28,21.59-41.62c.92-1.77.23-3.96-1.55-4.88-1.77-.92-3.96-.23-4.88,1.55l-21.59,41.62-8.26-4.28,23.88-46.04c.45-.86.53-1.84.24-2.76s-.93-1.67-1.78-2.12c-.86-.45-1.84-.53-2.76-.24-.92.29-1.67.93-2.12,1.78l-23.89,46.04-4.13-2.14-4.13-2.14h0s0,0,0,0l11.13-21.45,8.25-15.91c.45-.86.53-1.84.24-2.76-.29-.92-.93-1.67-1.78-2.12-1.77-.92-3.96-.23-4.88,1.55l-32.4,62.45-8.78-27.72c-.6-1.9-2.64-2.96-4.54-2.36-1.9.6-2.96,2.64-2.36,4.54Zm-129.71,100.08l3.44,8.78c14.77,1.08,29.69-1.17,43.51-6.59l49.55-19.44c13.81-5.42,26.28-13.92,36.38-24.76l-3.44-8.78c-7.9-20.13-24.89-35.41-45.43-41.39l8.85,22.57-8.66,3.4-15.15-38.61-13.32,1.1,26.44,67.38-8.66,3.4-30.16-76.85-20.38,8,30.16,76.86-8.66,3.4-2.89-7.36h0s-23.55-60.01-23.55-60.01l-10.51,8.25,15.15,38.61-8.66,3.4-8.85-22.57c-11,18.35-13.06,41.11-5.16,61.25Zm268.18-28.52c-5.74,3.4-10.72,4.43-14.99,4.43-3.82,0-7.07-.83-9.75-1.51-4.08-1.04-5.68-1.28-7.23-.35-1.32,1.45-1.4,3.26-1.29,7.42.19,7.25.44,17.13-12.68,28.19h32.73c.23-13.88,4.95-27.27,13.22-38.18Zm15.88-36.24l-21.5-26.31c-12.56,6.73-31.49,19.97-50.59,35.44-1.39,1.15-2.76,2.29-4.13,3.44-.02.03-.04.07-.05.09l-.03-.02c-17.22,14.48-32.2,28.86-40.62,39.01l.35.42,3.15,3.85h11.39l-3.8-4.65,2.68-2.96c.48-.53,11.93-13.17,28.87-28.02l6.13,6.99c-11.8,10.35-21.03,19.78-25.38,24.35l8.3,10.15-7.2,5.88-5.63-6.89v52.06h-9.3v-47.61h-47.15v47.61h-9.3v-56.91h22.13c.04-.06.09-.12.14-.18,6.05-8.34,5.14-20.06-1.63-27.93-11.24,12.46-25.31,22.21-40.96,28.35l-46.54,18.26h53.76v9.3h-137.93v108.75h367.81v-108.75h-135.93v-9.3h3.7c3.49-1.5,7.2-3.62,10.86-6.61,10.31-8.42,10.14-14.99,9.97-21.34-.12-4.66-.24-9.88,4.03-14.26l-.07-.09c.23-.19.47-.36.7-.53.23-.21.45-.41.7-.62l.07.09c5.21-3.33,10.43-2.02,14.69-.93,6,1.53,12.21,3.11,22.46-5.27,11.15-9.11,14.81-20.48,15.86-24.87Zm80.94,94.69c6.19,17.27,15.22,27.13,19.74,25.5,7.71-2.76,13.88-8.37,17.38-15.77,3.5-7.41,3.9-15.73,1.14-23.45s-8.37-13.88-15.77-17.38c-7.41-3.5-15.74-3.9-23.45-1.14-4.54,1.63-5.24,14.97.96,32.24Zm-137.9-88.58l5.88,7.2,3.65-2.98-5.88-7.2-3.65,2.98Zm-13.41,10.96l5.88,7.2,10.06-8.22-5.88-7.2-10.06,8.22Zm-45.44,118.7h-30.28v-61.56h30.28v61.56Zm-9.3-52.26h-11.68v42.96h11.68v-42.96Z"/>
  </g>
</svg>