<?xml version="1.0" encoding="UTF-8"?>
<svg id="Layer_2" data-name="Layer 2" xmlns="http://www.w3.org/2000/svg" xmlns:xlink="http://www.w3.org/1999/xlink" viewBox="0 0 496.61 268.55">
  <defs>
    <style>
      .cls-1 {
        fill: #3a3a3a;
      }

      .cls-2 {
        fill: url(#linear-gradient-2);
      }

      .cls-3 {
        fill: none;
      }

      .cls-3, .cls-4, .cls-5 {
        stroke-miterlimit: 10;
        stroke-width: 8px;
      }

      .cls-3, .cls-5 {
        stroke: #3a3a3a;
      }

      .cls-4 {
        stroke: url(#linear-gradient);
      }
    </style>
    <linearGradient id="linear-gradient" x1="176.61" y1="73.08" x2="290.39" y2="73.08" gradientUnits="userSpaceOnUse">
      <stop offset="0" stop-color="#2a358b"/>
      <stop offset="0" stop-color="#2a358b"/>
      <stop offset="1" stop-color="#33b7d5"/>
    </linearGradient>
    <linearGradient id="linear-gradient-2" x1="207.43" y1="82.82" x2="249.64" y2="82.82" xlink:href="#linear-gradient"/>
  </defs>
  <g id="Layer_1-2" data-name="Layer 1">
    <path class="cls-3" d="m264.08,81.19l-18.78-3.23-83.32-1.79-67.16-7.2-3.85,4.3-12.05-2.25-9.4,9.54-21.2,9.71-10.16,7.81s-6.01,2.3-7.04,2.89-9.29,10.53-9.29,10.53l-5.69,8.17-5,5.58s-1.96,5.36-1.85,6.15-3.86,7.92-3.86,7.92c3.97,2.29,9.08,2,8.93,3.15l-1.06,8.44,1.12,5.43-1,3.99,23.47,2.04,24.01,16.46,31.97,4.36,5.74-6.68,17.72,2.71,9.15,10.99,7.01,6.5s-.13,5.43,1.79,8.69c1.97,3.34,3.68,5.77,3.68,5.77l20.04-6.71,15.85,6.71,13.61,18.19s6.36,18.68,8.19,21.18,25.9,11.68,25.9,11.68l-4.08-19.65,6.09-13.76,29.8-12.66,15.48-5.96,17-3.37,25.93,6.82,13.82-.5,9.3-4.4-11.92-8.43,7.46-4.92s20.04.88,21.84.88,21.76.44,23.56.44,23.89.89,23.89.89l18.46,8.05,21.5,29.43,35.75,18.75,13.76-2.4,3-13.99-22.03-17.58-26.95-18.78-20.17-15.56-8.59-16.82,6.85-13.66,3.88-4.13,4.24-5.79,6.95-4.38-12.36-8.81-11.55-6.68-9.7-6.98,9.88,1.41.8-5.07-3.48-3.97-2.98-3.4,5.35-2.68,4.52-4.56,6.34-.39.26-2.47-9.22-1.86-6.84-4.31,5.62-4.11,4.59-2.96,1.24-2.86-6.59-1.86-10.73-3.3-5.38-1.6-3.77,3.24,2.16,6.87-18.76,3.32-2.69,5.22-4.18,4.78-10.71.95-24.98-3.37-8.34,1.11-5.41-7.33-18.01-3.25-12-.94-8.05-.16-17.32-3.52Z"/>
    <g>
      <polyline class="cls-5" points="354.96 142.17 333.9 142.17 333.9 89.89 306.92 81.62 262.02 89.89 262.02 142.17"/>
      <polyline class="cls-5" points="201.77 142.17 201.77 65.89 174.8 53.62 129.9 65.89 129.9 142.17 111.05 142.17"/>
      <polyline class="cls-5" points="290.14 142.17 269.08 142.17 269.08 24.89 242.11 4.62 197.2 24.89 197.2 142.17 176.36 142.17"/>
      <polygon class="cls-1" points="249.39 146.48 242.11 146.48 242.11 19.15 249.39 24.19 249.39 146.48"/>
      <polygon class="cls-1" points="235.18 30.67 207.18 41 207.18 32.34 235.18 21 235.18 30.67"/>
      <polygon class="cls-1" points="235.18 47.97 207.18 57.3 207.18 48.63 235.18 38.3 235.18 47.97"/>
      <polygon class="cls-1" points="235.18 65.26 207.18 73.6 207.18 64.93 235.18 55.6 235.18 65.26"/>
      <polygon class="cls-1" points="235.18 82.56 207.18 89.89 207.18 81.23 235.18 72.89 235.18 82.56"/>
      <polygon class="cls-1" points="235.18 99.86 207.18 106.19 207.18 97.52 235.18 90.19 235.18 99.86"/>
      <polygon class="cls-1" points="235.18 117.15 207.18 122.48 207.18 113.82 235.18 107.48 235.18 117.15"/>
      <g>
        <polygon class="cls-1" points="168.29 78.37 140.29 84.71 140.29 76.04 168.29 68.71 168.29 78.37"/>
        <polygon class="cls-1" points="168.29 95.67 140.29 101 140.29 92.34 168.29 86 168.29 95.67"/>
        <polygon class="cls-1" points="168.29 112.97 140.29 117.3 140.29 108.63 168.29 103.3 168.29 112.97"/>
        <polygon class="cls-1" points="168.29 130.26 140.29 133.6 140.29 124.93 168.29 120.6 168.29 130.26"/>
      </g>
      <g>
        <polygon class="cls-1" points="300.74 107.32 272.74 110.65 272.74 101.98 300.74 97.65 300.74 107.32"/>
        <polygon class="cls-1" points="300.74 124.61 272.74 126.95 272.74 118.28 300.74 114.95 300.74 124.61"/>
      </g>
      <polygon class="cls-1" points="235.18 134.45 207.18 138.78 207.18 130.11 235.18 124.78 235.18 134.45"/>
    </g>
    <g>
      <polyline class="cls-5" points="355.21 142.17 334.15 142.17 334.15 89.89 307.17 81.62 262.27 89.89 262.27 142.17"/>
      <polyline class="cls-5" points="202.02 142.17 202.02 65.89 175.05 53.62 130.14 65.89 130.14 142.17 111.3 142.17"/>
      <g>
        <polygon class="cls-1" points="168.54 78.37 140.54 84.71 140.54 76.04 168.54 68.71 168.54 78.37"/>
        <polygon class="cls-1" points="168.54 95.67 140.54 101 140.54 92.34 168.54 86 168.54 95.67"/>
        <polygon class="cls-1" points="168.54 112.97 140.54 117.3 140.54 108.63 168.54 103.3 168.54 112.97"/>
        <polygon class="cls-1" points="168.54 130.26 140.54 133.6 140.54 124.93 168.54 120.6 168.54 130.26"/>
      </g>
      <g>
        <polygon class="cls-1" points="300.98 107.32 272.98 110.65 272.98 101.98 300.98 97.65 300.98 107.32"/>
        <polygon class="cls-1" points="300.98 124.61 272.98 126.95 272.98 118.28 300.98 114.95 300.98 124.61"/>
      </g>
      <g>
        <polyline class="cls-4" points="290.39 142.17 269.33 142.17 269.33 24.89 242.35 4.62 197.45 24.89 197.45 142.17 176.61 142.17"/>
        <path class="cls-2" d="m249.64,146.48h-7.28V19.15l7.28,5.04v122.3Zm-14.21-125.48l-28,11.33v8.67l28-10.33v-9.67Zm0,17.3l-28,10.33v8.67l28-9.33v-9.67Zm0,17.3l-28,9.33v8.67l28-8.33v-9.67Zm0,17.3l-28,8.33v8.67l28-7.33v-9.67Zm0,17.3l-28,7.33v8.67l28-6.33v-9.67Zm0,17.3l-28,6.33v8.67l28-5.33v-9.67Zm0,17.3l-28,5.33v8.67l28-4.33v-9.67Z"/>
      </g>
    </g>
  </g>
</svg>