<?xml version="1.0" encoding="UTF-8"?>
<svg id="Layer_1" data-name="Layer 1" xmlns="http://www.w3.org/2000/svg" xmlns:xlink="http://www.w3.org/1999/xlink" viewBox="0 0 200 200">
  <defs>
    <style>
      .cls-1 {
        fill: url(#linear-gradient);
      }
    </style>
    <linearGradient id="linear-gradient" x1="32.72" y1="100" x2="167.28" y2="100" gradientUnits="userSpaceOnUse">
      <stop offset="0" stop-color="#3ac4de"/>
      <stop offset="1" stop-color="#374a9e"/>
    </linearGradient>
  </defs>
  <path class="cls-1" d="m157.17,97.59c-4.18,0-7.77,2.55-9.31,6.17l-.78-.36c-6.28-2.89-12.99-4.35-19.96-4.35-3.43,0-6.85.37-10.18,1.09l1.27,5.86c2.91-.63,5.9-.95,8.91-.95,3.96,0,7.82.54,11.54,1.61-9.47,6.12-16.44,15.4-19.74,26.04l-17.57-62.38c4.94-.66,8.76-4.89,8.76-10.01,0-5.57-4.53-10.1-10.11-10.1s-10.1,4.53-10.1,10.1c0,5.12,3.82,9.35,8.76,10.01l-17.57,62.37c-3.31-10.64-10.27-19.92-19.74-26.04,3.72-1.07,7.58-1.61,11.54-1.61,3,0,6,.32,8.9.95l1.27-5.86c-3.33-.72-6.75-1.09-10.18-1.09-6.97,0-13.69,1.47-19.96,4.35l-.78.36c-1.54-3.62-5.13-6.17-9.31-6.17-5.57,0-10.11,4.53-10.11,10.1s4.53,10.1,10.11,10.1c5.19,0,9.47-3.93,10.04-8.97l.06.03c14.66,6.75,24.16,21.47,24.3,37.57l-.95,3.37h47.45l-.95-3.37c.14-16.11,9.64-30.83,24.3-37.57l.06-.03c.57,5.04,4.85,8.97,10.04,8.97,5.57,0,10.1-4.53,10.1-10.1s-4.53-10.1-10.1-10.1Zm-114.34,14.21c-2.26,0-4.11-1.84-4.11-4.1s1.84-4.1,4.11-4.1,4.1,1.84,4.1,4.1-1.84,4.1-4.1,4.1Zm53.07-51.49c0-2.26,1.84-4.1,4.1-4.1s4.11,1.84,4.11,4.1-1.84,4.1-4.11,4.1-4.1-1.84-4.1-4.1Zm-11.7,83.48l15.8-56.11,15.8,56.11h-31.61Zm72.97-32c-2.26,0-4.1-1.84-4.1-4.1s1.84-4.1,4.1-4.1,4.1,1.84,4.1,4.1-1.84,4.1-4.1,4.1Z"/>
</svg>