<?xml version="1.0" encoding="UTF-8"?>
<svg id="Layer_1" data-name="Layer 1" xmlns="http://www.w3.org/2000/svg" xmlns:xlink="http://www.w3.org/1999/xlink" viewBox="0 0 200 200">
  <defs>
    <style>
      .cls-1 {
        fill: url(#linear-gradient);
      }
    </style>
    <linearGradient id="linear-gradient" x1="44.74" y1="99.58" x2="155.26" y2="99.58" gradientUnits="userSpaceOnUse">
      <stop offset="0" stop-color="#3ac4de"/>
      <stop offset="1" stop-color="#374a9e"/>
    </linearGradient>
  </defs>
  <path class="cls-1" d="m100,159.55l-1.27-.6c-32.79-15.35-53.99-48.66-53.99-84.86,0-2.12.07-4.17.2-6.1l.17-2.48,2.47-.29c19.02-2.19,36.43-10.37,50.33-23.64l2.07-1.98,2.07,1.98c13.91,13.27,31.31,21.44,50.33,23.64l2.47.29.17,2.48c.14,1.93.2,3.98.2,6.1,0,36.2-21.19,69.51-53.99,84.86l-1.27.6Zm-49.2-88.69c-.04,1.05-.06,2.13-.06,3.24,0,33.41,19.29,64.19,49.26,78.82,29.97-14.63,49.26-45.41,49.26-78.82,0-1.1-.02-2.19-.06-3.24-18.42-2.62-35.33-10.53-49.2-23.01-13.87,12.48-30.78,20.39-49.2,23.01Zm49.2,68.46l-1.59-.99c-19.19-11.99-32.31-32.56-35.1-55.01l-.32-2.58,2.51-.68c11.77-3.21,22.79-8.42,32.77-15.48l1.73-1.23,1.73,1.23c9.98,7.06,21,12.27,32.77,15.48l2.51.68-.32,2.58c-2.78,22.45-15.9,43.02-35.1,55.01l-1.59.99Zm-30.37-54.21c3.1,19.06,14.27,36.41,30.37,47.1,16.1-10.7,27.27-28.04,30.37-47.1-10.82-3.23-21.01-8.08-30.37-14.44-9.36,6.36-19.55,11.21-30.37,14.44Zm45.41,10.47l1.1-2.72-2.69-1.16c-4.08-1.76-8.1-3.77-11.97-5.97l-2.97,5.21c3.18,1.81,6.47,3.5,9.8,5.04-2.59,5.48-6.17,10.56-10.44,14.83l4.24,4.25c5.52-5.5,9.98-12.24,12.92-19.47Z"/>
</svg>