<?xml version="1.0" encoding="UTF-8"?>
<svg id="Layer_1" data-name="Layer 1" xmlns="http://www.w3.org/2000/svg" xmlns:xlink="http://www.w3.org/1999/xlink" viewBox="0 0 200 200">
  <defs>
    <style>
      .cls-1 {
        fill: url(#linear-gradient);
      }
    </style>
    <linearGradient id="linear-gradient" x1="48.96" y1="106.96" x2="151.04" y2="106.96" gradientUnits="userSpaceOnUse">
      <stop offset="0" stop-color="#3ac4de"/>
      <stop offset="1" stop-color="#374a9e"/>
    </linearGradient>
  </defs>
  <path class="cls-1" d="m75.84,107.46h48.32v-17.08l9.47-26.81-21.51,9.3-12.12-20.26-12.12,20.26-21.51-9.3,9.47,26.81v17.08Zm42.32-6h-36.32v-8.59h36.32v8.59Zm-27.83-20.99l9.67-16.17,9.67,16.17,13.73-5.93-4.36,12.33h-38.07l-4.36-12.33,13.73,5.93Zm9.67,54.07c28.15,0,51.04-22.9,51.04-51.04,0-6.94-1.37-13.66-4.07-20-8.04-18.86-26.48-31.05-46.98-31.05s-39.02,12.24-47.03,31.17c-2.66,6.3-4.01,12.98-4.01,19.87,0,28.15,22.9,51.04,51.04,51.04Zm-41.51-68.58c7.07-16.71,23.36-27.51,41.51-27.51s34.37,10.76,41.46,27.4c2.38,5.58,3.59,11.52,3.59,17.64,0,24.84-20.21,45.04-45.04,45.04s-45.04-20.21-45.04-45.04c0-6.08,1.19-11.98,3.54-17.53Zm75.06,63.54c2.12-1.55,4.12-3.24,6-5.05v56.93l-39.93-25.73-39.18,25.8v-57c1.88,1.82,3.88,3.51,6,5.05v40.81l33.15-21.82,33.96,21.89v-40.88Z"/>
</svg>