<?xml version="1.0" encoding="UTF-8"?>
<svg id="Layer_1" data-name="Layer 1" xmlns="http://www.w3.org/2000/svg" xmlns:xlink="http://www.w3.org/1999/xlink" viewBox="0 0 200 200">
  <defs>
    <style>
      .cls-1 {
        fill: url(#linear-gradient);
      }
    </style>
    <linearGradient id="linear-gradient" x1="49.5" y1="100" x2="150.5" y2="100" gradientUnits="userSpaceOnUse">
      <stop offset="0" stop-color="#3ac4de"/>
      <stop offset="1" stop-color="#374a9e"/>
    </linearGradient>
  </defs>
  <path class="cls-1" d="m93.08,72c-.33.31-.65.63-.97.95-6.97,6.97-12.51,15.01-16.48,23.89-.79,1.74-1.51,3.53-2.15,5.31l-.64,1.79,23.15,23.15,1.79-.64c1.8-.65,3.54-1.35,5.3-2.15,8.89-3.97,16.93-9.52,23.9-16.48.31-.31.62-.62.89-.91,14.21-14.66,22.23-33.97,22.57-54.38l.05-3.1-3.11.05c-20.38.36-39.67,8.35-54.31,22.51Zm30.46,30.77c-.26.28-.53.54-.79.81h0c-6.45,6.45-13.88,11.58-22.12,15.26-1.04.47-2.07.9-3.1,1.31l-17.73-17.73c.41-1.04.84-2.07,1.31-3.11,3.67-8.22,8.8-15.66,15.25-22.11.29-.29.56-.56.89-.88,12.78-12.36,29.4-19.65,47.08-20.7-1.05,17.7-8.36,34.34-20.79,47.16Zm-55.98-11.26l-13.74-13.74,15.17-15.17,15.19,2.75-1.07,5.9-12.1-2.19-8.71,8.71,9.5,9.5-4.24,4.24Zm67.16,24.37l2.75,15.19-15.17,15.17-13.74-13.74,4.24-4.24,9.5,9.5,8.71-8.71-2.19-12.1,5.9-1.07Zm-76.9,12.69l-4.24-4.24,15.59-15.59,4.24,4.24-15.59,15.59Zm29.27-1.92l4.24,4.24-15.59,15.59-4.24-4.24,15.59-15.59Zm-4.72-4.72l-28.63,28.62-4.24-4.24,28.63-28.63,4.24,4.24Zm32.66-25.34c3.12,0,6.05-1.22,8.26-3.42h0c2.21-2.21,3.42-5.14,3.42-8.26s-1.21-6.05-3.42-8.26c-2.21-2.21-5.14-3.42-8.26-3.42s-6.05,1.21-8.26,3.42c-2.21,2.21-3.42,5.14-3.42,8.26s1.21,6.05,3.42,8.26c2.21,2.21,5.14,3.42,8.26,3.42Zm-4.02-15.7c1.07-1.07,2.5-1.66,4.02-1.66s2.94.59,4.02,1.66c1.07,1.07,1.66,2.5,1.66,4.02s-.59,2.94-1.66,4.02h0c-1.07,1.07-2.5,1.66-4.02,1.66s-2.94-.59-4.02-1.66c-1.07-1.07-1.66-2.5-1.66-4.02s.59-2.94,1.66-4.02Z"/>
</svg>