<?xml version="1.0" encoding="UTF-8"?>
<svg id="Layer_1" data-name="Layer 1" xmlns="http://www.w3.org/2000/svg" xmlns:xlink="http://www.w3.org/1999/xlink" viewBox="0 0 200 200">
  <defs>
    <style>
      .cls-1 {
        fill: url(#linear-gradient);
      }
    </style>
    <linearGradient id="linear-gradient" x1="19.15" y1="101.29" x2="180.85" y2="101.29" gradientUnits="userSpaceOnUse">
      <stop offset="0" stop-color="#3ac4de"/>
      <stop offset="1" stop-color="#374a9e"/>
    </linearGradient>
  </defs>
  <path class="cls-1" d="m84.39,117.28h48.45v6h-48.45c-.9,1.15-2.28,1.91-3.86,1.91s-2.96-.75-3.86-1.91h-9.53v-6h9.53c.9-1.15,2.28-1.91,3.86-1.91s2.96.75,3.86,1.91Zm-30.3-47.39v65.4h91.81v-65.4h-27.84c.15.96.26,1.93.26,2.93s-.11,2.07-.28,3.07h21.86v53.4H60.09v-53.4h21.86c-.17-1-.28-2.02-.28-3.07s.1-1.97.26-2.93h-27.84Zm24.59,39.58h6v-.92c0-8.45,6.87-15.32,15.32-15.32s15.32,6.87,15.32,15.32v.92h6v-.92c0-11.76-9.56-21.32-21.32-21.32s-21.32,9.56-21.32,21.32v.92Zm9.27-36.65c0-6.64,5.41-12.05,12.05-12.05s12.05,5.41,12.05,12.05-5.41,12.05-12.05,12.05-12.05-5.41-12.05-12.05Zm6,0c0,3.34,2.71,6.05,6.05,6.05s6.05-2.71,6.05-6.05-2.71-6.05-6.05-6.05-6.05,2.71-6.05,6.05Zm-4.56-35.79c0-5.85,4.76-10.61,10.61-10.61s10.61,4.76,10.61,10.61c0,4.81-3.22,8.88-7.61,10.17v6.86h-6v-6.86c-4.39-1.3-7.61-5.36-7.61-10.17Zm6,0c0,2.54,2.07,4.61,4.61,4.61s4.61-2.07,4.61-4.61-2.07-4.61-4.61-4.61-4.61,2.07-4.61,4.61Zm-43.99,16.64c-3.34-4.81-2.15-11.43,2.66-14.77,4.81-3.34,11.43-2.15,14.77,2.66h0c1.62,2.33,2.23,5.15,1.73,7.94-.32,1.78-1.07,3.4-2.17,4.77l5.42,7.8-4.93,3.42-5.42-7.8c-1.07.36-2.19.54-3.32.54-.63,0-1.27-.06-1.9-.17-2.79-.5-5.22-2.06-6.84-4.39Zm4.93-3.42c.7,1.01,1.76,1.69,2.97,1.91,1.21.22,2.44-.05,3.45-.75,1.01-.7,1.69-1.76,1.91-2.97.22-1.21-.05-2.44-.75-3.45-.9-1.29-2.33-1.98-3.79-1.98-.91,0-1.83.27-2.63.82-1.01.7-1.69,1.76-1.91,2.97-.22,1.21.05,2.44.75,3.45Zm94.01-4.51c.5,2.79-.11,5.61-1.73,7.94-1.62,2.33-4.04,3.89-6.83,4.39-.63.11-1.27.17-1.9.17-1.14,0-2.25-.19-3.32-.54l-5.42,7.8-4.93-3.42,5.42-7.8c-2.87-3.57-3.19-8.75-.45-12.7h0c3.34-4.81,9.97-6,14.77-2.66,2.33,1.62,3.89,4.04,4.39,6.84Zm-5.91,1.06c-.22-1.21-.9-2.27-1.91-2.97-2.09-1.45-4.97-.93-6.42,1.16-.7,1.01-.97,2.24-.75,3.45.22,1.21.9,2.27,1.91,2.97,1.01.7,2.24.97,3.45.75,1.21-.22,2.27-.9,2.97-1.91.7-1.01.97-2.24.75-3.45Zm-33.81,118.75c0,5.85-4.76,10.61-10.61,10.61s-10.61-4.76-10.61-10.61c0-4.81,3.22-8.88,7.61-10.17v-13.02h6v13.02c4.39,1.3,7.61,5.36,7.61,10.17Zm-6,0c0-2.54-2.07-4.61-4.61-4.61s-4.61,2.07-4.61,4.61,2.07,4.61,4.61,4.61,4.61-2.07,4.61-4.61Zm76.24-62.96c0,5.85-4.76,10.61-10.61,10.61-4.81,0-8.88-3.22-10.17-7.61h-9.5v-6h9.5c1.3-4.39,5.36-7.61,10.17-7.61,5.85,0,10.61,4.76,10.61,10.61Zm-6,0c0-2.54-2.07-4.61-4.61-4.61s-4.61,2.07-4.61,4.61,2.07,4.61,4.61,4.61,4.61-2.07,4.61-4.61Zm-134.92-3h9.5v6h-9.5c-1.3,4.39-5.36,7.61-10.17,7.61-5.85,0-10.61-4.76-10.61-10.61s4.76-10.61,10.61-10.61c4.81,0,8.88,3.22,10.17,7.61Zm-5.56,3c0-2.54-2.07-4.61-4.61-4.61s-4.61,2.07-4.61,4.61,2.07,4.61,4.61,4.61,4.61-2.07,4.61-4.61Zm39.43,41.47l-5.42,7.8c1.1,1.37,1.85,2.99,2.17,4.77.5,2.79-.11,5.61-1.73,7.94h0c-2.06,2.96-5.37,4.55-8.73,4.55-2.09,0-4.2-.61-6.04-1.89-4.81-3.34-6-9.97-2.66-14.77,2.74-3.95,7.71-5.45,12.06-4.01l5.42-7.8,4.93,3.42Zm-9.15,13.63c-.22-1.21-.9-2.27-1.91-2.97-.8-.56-1.72-.82-2.63-.82-1.46,0-2.9.69-3.79,1.98-.7,1.01-.97,2.24-.75,3.45.22,1.21.9,2.27,1.91,2.97,2.09,1.45,4.97.93,6.42-1.16.7-1.01.97-2.24.75-3.45Zm83.95-5.24c1.62,2.33,2.23,5.15,1.73,7.94-.5,2.79-2.06,5.22-4.39,6.84-1.84,1.28-3.95,1.89-6.04,1.89-3.36,0-6.67-1.59-8.73-4.55h0c-2.74-3.95-2.42-9.13.45-12.7l-5.42-7.8,4.93-3.42,5.42,7.8c4.35-1.44,9.31.06,12.06,4.01Zm-4.93,3.42c-1.45-2.09-4.33-2.61-6.42-1.16-1.01.7-1.69,1.76-1.91,2.97-.22,1.21.05,2.44.75,3.45,1.45,2.09,4.33,2.61,6.42,1.16,1.01-.7,1.69-1.76,1.91-2.97.22-1.21-.05-2.44-.75-3.45Z"/>
</svg>