<?xml version="1.0" encoding="UTF-8"?>
<svg id="Layer_1" data-name="Layer 1" xmlns="http://www.w3.org/2000/svg" xmlns:xlink="http://www.w3.org/1999/xlink" viewBox="0 0 200 200">
  <defs>
    <style>
      .cls-1 {
        fill: url(#linear-gradient);
      }
    </style>
    <linearGradient id="linear-gradient" x1="48.04" y1="104.46" x2="151.96" y2="104.46" gradientUnits="userSpaceOnUse">
      <stop offset="0" stop-color="#3ac4de"/>
      <stop offset="1" stop-color="#374a9e"/>
    </linearGradient>
  </defs>
  <path class="cls-1" d="m80.26,92.3h-6v-27.07c0-1.34.88-2.53,2.17-2.92l11.16-3.35v-2.9c0-1.68,1.36-3.04,3.04-3.04h18.73c1.68,0,3.04,1.36,3.04,3.04v2.9l11.16,3.35c1.29.39,2.17,1.57,2.17,2.92v27.07h-6v-24.88l-7.33-2.2v43.41h-6v-49.62h-12.82v49.62h-6v-43.41l-7.33,2.2v24.88Zm62.94,49.87c-.37.24-.75.46-1.13.68-1.7.95-3.69,2.89-5.79,4.95-4.08,3.99-8.29,8.12-13.35,8.12h-45.86c-5.06,0-9.28-4.13-13.35-8.12-2.1-2.05-4.08-4-5.79-4.95-.39-.21-.76-.44-1.13-.68-8.71-5.57-11.35-17.12-6.01-26.29l1.46-2.51v-2.43c0-13.69,5.97-26.68,16.01-35.66v8.58c-6.34,7.47-10.01,17.06-10.01,27.08v5.57c8,3.81,16.81,5.81,25.69,5.81h32.12c8.88,0,17.69-2,25.69-5.81v-5.57c0-10.02-3.66-19.61-10.01-27.08v-8.58c10.04,8.98,16.01,21.97,16.01,35.66v2.49l1.44,2.42c5.36,9.21,2.72,20.76-5.99,26.33Zm2-20.67c-9.04,4.47-19.04,6.82-29.14,6.82h-32.12c-10.1,0-20.11-2.35-29.14-6.82-1.92,5.78.13,12.35,5.23,15.61.27.17.54.33.82.49,2.4,1.34,4.66,3.55,7.06,5.9,3.07,3,6.54,6.4,9.16,6.4h45.86c2.61,0,6.09-3.4,9.16-6.4,2.39-2.34,4.66-4.56,7.06-5.9.28-.16.55-.32.82-.49,5.1-3.26,7.15-9.83,5.23-15.61Z"/>
</svg>