<?xml version="1.0" encoding="UTF-8"?>
<svg id="Layer_1" data-name="Layer 1" xmlns="http://www.w3.org/2000/svg" xmlns:xlink="http://www.w3.org/1999/xlink" viewBox="0 0 200 200">
  <defs>
    <style>
      .cls-1 {
        fill: url(#linear-gradient);
      }
    </style>
    <linearGradient id="linear-gradient" x1="27.42" y1="103.94" x2="170.06" y2="103.94" gradientUnits="userSpaceOnUse">
      <stop offset="0" stop-color="#3ac4de"/>
      <stop offset="1" stop-color="#374a9e"/>
    </linearGradient>
  </defs>
  <path class="cls-1" d="m119.94,104.38c-1.62-1.63-4.12-1.86-6-.7l-30.94-30.94c-1.05-1.11-4.63-11.03,2.29-17.95,3.16-3.16,6.58-5.02,10.15-5.53,1.98-.28,3.47-1.87,3.61-3.88.14-2.01-1.1-3.81-3.04-4.38-17.06-4.98-30.6,5.27-37.15,11.83l-14.32,14.32-.14.98c-.89,6.03-1.48,10.01-9.21,12.04l-.79.21-5.97,5.97c-.4.4-.99,1.21-1.01,2.51-.04,2.24,1.65,4.94,5.48,8.78,3.44,3.44,6.31,5.12,8.75,5.12.03,0,.05,0,.08,0,1.72-.02,2.7-.86,2.98-1.16l5.6-5.6.93-.98-.05-1.31c0-.13-.09-3.12,2.73-5.94,1.86-1.86,3.45-3.15,5.14-3.36,2.13-.26,4.8,1.19,7.94,4.34l2.12,2.12h0s28.82,28.82,28.82,28.82c-.47.76-.72,1.64-.72,2.56,0,1.3.51,2.53,1.43,3.45l41.07,41.07c.95.95,2.2,1.43,3.45,1.43s2.5-.48,3.44-1.42l14.42-14.42c1.9-1.9,1.9-4.99,0-6.89l-41.07-41.07Zm-61.64-25.92c-3.58.45-6.27,2.7-8.64,5.07-3.1,3.1-4.2,6.68-4.44,9.06l-4.01,4.01c-.64-.29-1.95-1.07-4.08-3.2-1.96-1.95-2.9-3.21-3.35-3.92l3.72-3.72c10.24-3,11.78-9.89,12.67-15.76l12.92-12.92c9.03-9.03,17.55-11.5,24.34-11.38-2.23,1.2-4.37,2.82-6.39,4.85-5.09,5.09-6,11.18-5.88,15.4.09,3.09.81,6.19,1.89,8.48l-8.04,8.04c-3.75-3.13-7.27-4.45-10.72-4.02Zm84.85,83.26l-39.57-39.57c1.16-1.88.92-4.38-.7-6l-29.52-29.52,3.39-3.39,4.14-4.14,29.52,29.52c1.63,1.63,4.12,1.86,6,.7l39.57,39.57-12.82,12.82Zm26.81-98.33c-.93,9.98-8.83,18.13-18.77,19.39-2.57.32-5.13.19-7.64-.41l-17.45,17.45-4.24-4.24,20.01-20.01,1.76.58c2.23.74,4.52.96,6.82.67,7.17-.91,12.87-6.79,13.54-13.99.07-.74.08-1.48.05-2.21l-8.68,8.68c-1.96,1.96-5.16,1.96-7.12,0l-7.63-7.63c-1.96-1.97-1.96-5.16,0-7.12l8.68-8.68c-.74-.04-1.47-.02-2.21.05-7.2.67-13.08,6.37-13.99,13.55-.29,2.3-.06,4.6.67,6.82l.58,1.76-22.56,22.56-4.24-4.24,20.01-20.01c-.6-2.51-.74-5.07-.41-7.64,1.25-9.94,9.4-17.84,19.38-18.77,2.16-.2,4.34-.08,6.46.38,1.69.36,3.04,1.62,3.53,3.28.5,1.68.04,3.5-1.2,4.74l-9.77,9.77,6.27,6.27,9.77-9.77c1.24-1.24,3.05-1.7,4.74-1.2,1.66.49,2.92,1.84,3.28,3.53.45,2.12.58,4.29.38,6.45Zm-74.92,67.48l-10.61,10.61c.6,2.51.74,5.07.41,7.64-1.25,9.94-9.41,17.84-19.38,18.77-.66.06-1.33.09-1.99.09-1.5,0-2.99-.16-4.46-.47-1.69-.36-3.04-1.62-3.53-3.28-.5-1.68-.04-3.5,1.2-4.74l9.77-9.77-6.27-6.27-9.77,9.77c-1.24,1.24-3.05,1.7-4.74,1.2-1.66-.49-2.92-1.84-3.28-3.53-.45-2.12-.58-4.29-.38-6.45.93-9.98,8.83-18.13,18.77-19.38,2.57-.32,5.13-.18,7.64.41l13.44-13.44,4.24,4.24-15.99,15.99-1.76-.58c-2.23-.74-4.52-.97-6.82-.67-7.18.91-12.87,6.79-13.54,13.99-.07.74-.08,1.48-.05,2.21l8.68-8.68c.95-.95,2.22-1.48,3.56-1.48s2.61.52,3.56,1.48l7.63,7.63c1.96,1.97,1.96,5.16,0,7.12l-8.68,8.68c.73.04,1.47.02,2.21-.05,7.2-.67,13.08-6.37,13.99-13.55.29-2.3.06-4.59-.67-6.82l-.58-1.76,13.16-13.16,4.24,4.24Z"/>
</svg>