<?xml version="1.0" encoding="UTF-8"?>
<svg id="Layer_1" data-name="Layer 1" xmlns="http://www.w3.org/2000/svg" xmlns:xlink="http://www.w3.org/1999/xlink" viewBox="0 0 200 200">
  <defs>
    <style>
      .cls-1 {
        fill: url(#linear-gradient);
      }
    </style>
    <linearGradient id="linear-gradient" x1="33.01" y1="101.46" x2="166.55" y2="101.46" gradientUnits="userSpaceOnUse">
      <stop offset="0" stop-color="#3ac4de"/>
      <stop offset="1" stop-color="#374a9e"/>
    </linearGradient>
  </defs>
  <path class="cls-1" d="m166.55,91.88c0,10.92-8.88,19.8-19.8,19.8h-10.52v-6h10.52c7.61,0,13.8-6.19,13.8-13.8s-6.19-13.8-13.8-13.8c-1.52,0-3.05.26-4.54.78l-5.55,1.94,1.69-5.63c.25-.83.37-1.67.37-2.52,0-4.84-3.94-8.77-8.77-8.77-.95,0-1.91.16-2.84.48l-3.88,1.33-.09-4.1c-.27-12.29-10.49-22.29-22.79-22.29s-22,9.38-22.75,21.36l-.3,4.81-4.18-2.39c-3.43-1.96-7.33-2.99-11.29-2.99-12.57,0-22.8,10.23-22.8,22.8s10.23,22.8,22.8,22.8h2.38v6h-2.38c-15.88,0-28.8-12.92-28.8-28.8s12.92-28.8,28.8-28.8c3.55,0,7.08.66,10.37,1.93,2.81-13.03,14.44-22.72,28.15-22.72s26.44,10.76,28.49,24.63c.37-.03.74-.04,1.11-.04,7.99,0,14.52,6.38,14.77,14.31.68-.07,1.36-.11,2.04-.11,10.92,0,19.8,8.88,19.8,19.8Zm-44.86,17.92v2.34h6v-4.7l-9.27-9.97h-31.37v51h6v-45h22.75l5.88,6.33Zm-15.32-20.39v2.34h6v-4.7l-9.27-9.97h-31.37v51h6v-45h22.75l5.88,6.33Zm36.65,38.41v41.83h-40.63v-51.8h31.36l9.27,9.97Zm-6,35.83v-31.33h-7.58v-8.47h-21.06v39.8h28.63Z"/>
</svg>