<?xml version="1.0" encoding="UTF-8"?>
<svg id="Layer_1" data-name="Layer 1" xmlns="http://www.w3.org/2000/svg" xmlns:xlink="http://www.w3.org/1999/xlink" viewBox="0 0 200 200">
  <defs>
    <style>
      .cls-1 {
        fill: url(#linear-gradient);
      }
    </style>
    <linearGradient id="linear-gradient" x1="46.97" y1="100" x2="163.03" y2="100" gradientUnits="userSpaceOnUse">
      <stop offset="0" stop-color="#3ac4de"/>
      <stop offset="1" stop-color="#374a9e"/>
    </linearGradient>
  </defs>
  <path class="cls-1" d="m129.26,75.73c-3.64-19.2-20.54-33.76-40.78-33.76-22.89,0-41.52,18.62-41.52,41.52,0,20.24,14.56,37.14,33.76,40.78,3.64,19.2,20.54,33.76,40.78,33.76,22.89,0,41.52-18.62,41.52-41.52,0-20.24-14.56-37.14-33.76-40.78Zm-76.3,7.75c0-19.58,15.93-35.52,35.52-35.52,16.67,0,30.69,11.55,34.49,27.06-.49-.02-.98-.04-1.47-.04-22.89,0-41.52,18.62-41.52,41.52,0,.49.02.98.04,1.47-15.51-3.8-27.06-17.82-27.06-34.49Zm33.03,33.03c0-2.53.27-4.99.77-7.37l9.09,9.09c-2.38.5-4.84.77-7.37.77-.81,0-1.61-.04-2.4-.09-.05-.79-.09-1.59-.09-2.4Zm16.32-.31l-13.52-13.52c1.48-3.49,3.51-6.68,5.96-9.49l17.05,17.05c-2.81,2.46-6.01,4.48-9.49,5.96Zm13.67-10.27l-16.92-16.92c2.91-2.38,6.21-4.31,9.78-5.67l12.81,12.81c-1.37,3.57-3.29,6.87-5.67,9.78Zm8.02-22.45c0,2.05-.18,4.05-.52,6l-7.98-7.98c1.95-.33,3.96-.52,6-.52.81,0,1.61.04,2.4.09.05.79.09,1.59.09,2.4Zm-2.49,68.54c-16.67,0-30.69-11.55-34.49-27.06.49.02.98.04,1.47.04,22.89,0,41.52-18.62,41.52-41.52,0-.49-.02-.98-.04-1.47,15.51,3.8,27.06,17.82,27.06,34.49,0,19.58-15.93,35.52-35.52,35.52Z"/>
</svg>