<?xml version="1.0" encoding="UTF-8"?>
<svg id="Layer_1" data-name="Layer 1" xmlns="http://www.w3.org/2000/svg" xmlns:xlink="http://www.w3.org/1999/xlink" viewBox="0 0 200 200">
  <defs>
    <style>
      .cls-1 {
        fill: url(#linear-gradient);
      }
    </style>
    <linearGradient id="linear-gradient" x1="31.64" y1="94.64" x2="168.36" y2="94.64" gradientUnits="userSpaceOnUse">
      <stop offset="0" stop-color="#3ac4de"/>
      <stop offset="1" stop-color="#374a9e"/>
    </linearGradient>
  </defs>
  <path class="cls-1" d="m31.64,87.1h6v16.84h-6v-16.84Zm57.84-6.05h-13.02l-10.29,10.29-10.29-10.29h-24.25v-42.08h57.84v42.08Zm-6-36.08h-45.84v30.08h20.73l7.8,7.8,7.8-7.8h9.5v-30.08Zm-25.52,8.68c.45-.71,1.21-1.07,2.28-1.07s1.84.29,2.25.87c.41.58.62,1.22.62,1.92,0,.61-.19,1.17-.55,1.68-.2.3-.47.57-.8.82l-1.01.79c-1,.78-1.62,1.46-1.86,2.06-.24.6-.39,1.68-.44,3.24h3.75c0-.74.07-1.29.18-1.64.18-.56.53-1.04,1.07-1.46l.99-.76c1-.78,1.67-1.42,2.03-1.91.6-.82.9-1.84.9-3.04,0-1.96-.69-3.44-2.07-4.44s-3.12-1.5-5.21-1.5c-1.59,0-2.93.35-4.02,1.05-1.73,1.1-2.65,2.97-2.76,5.61h4.01c0-.77.22-1.51.67-2.22Zm.38,16.22h4.13v-4.01h-4.13v4.01Zm60.99,50.8l-10.29-10.29h-12.04v-32.86h57.84v32.86h-25.22l-10.29,10.29Zm-7.8-16.29l7.8,7.8,7.8-7.8h21.71v-20.86h-45.84v20.86h8.53Zm16.28-7.79c1.21-.89,1.95-1.42,3.71-1.42s2.49.54,3.71,1.42c1.49,1.09,3.53,2.58,7.25,2.58v-6c-1.76,0-2.49-.54-3.71-1.42-1.49-1.09-3.53-2.58-7.25-2.58s-5.76,1.49-7.25,2.58c-1.21.89-1.95,1.42-3.71,1.42s-2.49-.54-3.7-1.42c-1.49-1.09-3.53-2.58-7.24-2.58v6c1.76,0,2.49.54,3.7,1.42,1.49,1.09,3.53,2.58,7.24,2.58s5.76-1.49,7.25-2.58Zm-57.81,15.68h-5.15l1.79-3.11c.99-1.72.99-3.77,0-5.48-.99-1.72-2.77-2.74-4.75-2.74h-5.68c-1.85,0-3.56.92-4.58,2.46l-5.43,8.22h-3.57v6h3.85c1.85,0,3.56-.92,4.58-2.46l5.43-8.22h4.5l-1.79,3.11c-.99,1.72-.99,3.77,0,5.48.99,1.72,2.77,2.74,4.75,2.74h5.41l-3.24,14.91h-7.62l-8.46-6.04c-.94-.67-2.04-1.02-3.19-1.02h-4.21v6h4.05l8.46,6.04c.94.67,2.04,1.02,3.19,1.02h8.21c2.56,0,4.81-1.82,5.36-4.32l3.46-15.95c.35-1.63-.04-3.31-1.09-4.6-1.05-1.3-2.6-2.04-4.27-2.04Zm-38.36,22.03h6v-24.59h-6v24.59Zm79.94.33v9.68h10.2v6h-43.56v-6h10.2v-9.68h-10.2v-6h84.14V58.83h-66v-6h72v81.8h-56.79Zm-6,0h-11.15v9.68h11.15v-9.68Z"/>
</svg>