<?xml version="1.0" encoding="UTF-8"?>
<svg id="Layer_1" data-name="Layer 1" xmlns="http://www.w3.org/2000/svg" xmlns:xlink="http://www.w3.org/1999/xlink" viewBox="0 0 200 200">
  <defs>
    <style>
      .cls-1 {
        fill: url(#linear-gradient);
      }
    </style>
    <linearGradient id="linear-gradient" x1="38.29" y1="98.7" x2="176.57" y2="98.7" gradientUnits="userSpaceOnUse">
      <stop offset="0" stop-color="#3ac4de"/>
      <stop offset="1" stop-color="#374a9e"/>
    </linearGradient>
  </defs>
  <path class="cls-1" d="m95.97,125.35l-31.94-31.94,15.41-15.41,16.53,16.53,49.09-49.09,15.41,15.41-64.5,64.5Zm-23.46-31.94l23.46,23.45,56.02-56.02-6.92-6.92-49.09,49.09-16.53-16.53-6.92,6.92Zm5.65-35.74c-2.41,4.85-7.4,8.2-13.17,8.2-8.11,0-14.7-6.6-14.7-14.7s6.6-14.7,14.7-14.7c1.01,0,2,.1,2.96.3l4.78-4.78c-2.39-.97-5-1.52-7.74-1.52-11.42,0-20.7,9.29-20.7,20.7s9.29,20.7,20.7,20.7,20.7-9.29,20.7-20.7c0-.33-.03-.66-.05-.98l-7.49,7.49Zm11.29-22.6l-4.24-4.24-19.66,19.66-5.21-5.21-4.24,4.24,9.45,9.46,23.9-23.9Zm75.82,91.5c-2.41,4.85-7.4,8.2-13.17,8.2-8.11,0-14.7-6.6-14.7-14.7s6.6-14.7,14.7-14.7c1.01,0,2,.1,2.96.3l4.78-4.78c-2.39-.97-5-1.52-7.74-1.52-11.42,0-20.7,9.29-20.7,20.7s9.29,20.7,20.7,20.7,20.7-9.29,20.7-20.7c0-.33-.03-.66-.05-.98l-7.49,7.49Zm11.29-22.6l-4.24-4.24-19.66,19.66-5.21-5.21-4.24,4.24,9.45,9.46,23.9-23.9Zm-39.62-12.52c.4,2.23.63,4.51.66,6.84,1.81-1.21,3.78-2.19,5.87-2.93-.22-3.07-.74-6.05-1.52-8.93l-5.01,5.01Zm-75.06,28.78c-3.86-6.24-6.09-13.58-6.09-21.44s2.28-15.36,6.21-21.64c-2.12-.24-4.17-.73-6.11-1.45-3.88,6.82-6.1,14.7-6.1,23.09,0,7.78,1.91,15.11,5.27,21.57,1.28-.19,2.59-.29,3.92-.29.98,0,1.94.06,2.89.16Zm64.87,6.29c-7.48,8.1-18.18,13.18-30.05,13.18-4.56,0-8.94-.76-13.04-2.14.74,2.12,1.22,4.35,1.39,6.68,3.72.95,7.63,1.46,11.64,1.46,12.58,0,24.01-4.99,32.45-13.08-1.04-1.9-1.86-3.95-2.4-6.1Zm-36.62-68.1c2.14-.35,4.34-.54,6.58-.54,8.2,0,15.84,2.43,22.25,6.61l4.32-4.32c-7.56-5.22-16.71-8.28-26.57-8.28-1.89,0-3.75.13-5.58.34-.08,2.14-.43,4.21-1,6.19Zm-17.97,94.32c-2.41,4.85-7.4,8.2-13.17,8.2-8.11,0-14.7-6.6-14.7-14.7s6.6-14.7,14.7-14.7c1.01,0,2,.1,2.96.3l4.78-4.78c-2.39-.97-5-1.52-7.74-1.52-11.42,0-20.7,9.29-20.7,20.7s9.29,20.7,20.7,20.7,20.7-9.29,20.7-20.7c0-.33-.03-.66-.05-.98l-7.49,7.49Zm11.29-22.6l-4.24-4.24-19.66,19.66-5.21-5.21-4.24,4.24,9.45,9.46,23.9-23.9Z"/>
</svg>