<?xml version="1.0" encoding="UTF-8"?>
<svg id="Layer_1" data-name="Layer 1" xmlns="http://www.w3.org/2000/svg" xmlns:xlink="http://www.w3.org/1999/xlink" viewBox="0 0 200 200">
  <defs>
    <style>
      .cls-1 {
        fill: url(#linear-gradient);
      }
    </style>
    <linearGradient id="linear-gradient" x1="52.49" y1="98.31" x2="164.5" y2="98.31" gradientUnits="userSpaceOnUse">
      <stop offset="0" stop-color="#3ac4de"/>
      <stop offset="1" stop-color="#374a9e"/>
    </linearGradient>
  </defs>
  <path class="cls-1" d="m103.51,121.14l-26.18-26.18,4.24-4.24,21.94,21.94,56.75-56.75,4.24,4.24-60.99,60.99Zm43.55-29.41c-4.93,22.77-19.6,42.68-40.37,53.97v-13.6l-3.18,3.18-2.82-2.82v13.24c-25.78-14.01-42.19-41.32-42.19-70.87,0-.95.02-1.88.05-2.78,15.59-2.25,29.99-8.61,42.14-18.56v42.19l2.82,2.82,3.18-3.18v-41.84c8.08,6.61,17.17,11.62,26.93,14.91l4.78-4.78c-12.15-3.58-23.26-10-32.64-18.94l-2.07-1.98-2.07,1.98c-12.79,12.2-28.79,19.72-46.28,21.73l-2.47.29-.17,2.48c-.13,1.79-.19,3.69-.19,5.64,0,33.47,19.59,64.27,49.92,78.47l1.27.6,1.27-.6c27.38-12.82,45.99-39.18,49.35-68.82l-7.25,7.25Z"/>
</svg>