<?xml version="1.0" encoding="UTF-8"?>
<svg id="Layer_1" data-name="Layer 1" xmlns="http://www.w3.org/2000/svg" xmlns:xlink="http://www.w3.org/1999/xlink" viewBox="0 0 200 200">
  <defs>
    <style>
      .cls-1 {
        fill: url(#linear-gradient);
      }
    </style>
    <linearGradient id="linear-gradient" x1="29.3" y1="100.82" x2="185.3" y2="100.82" gradientUnits="userSpaceOnUse">
      <stop offset="0" stop-color="#3ac4de"/>
      <stop offset="1" stop-color="#374a9e"/>
    </linearGradient>
  </defs>
  <path class="cls-1" d="m43.47,128.77c0,16.9,13.75,30.64,30.64,30.64s30.64-13.75,30.64-30.64-13.75-30.64-30.64-30.64-30.64,13.75-30.64,30.64Zm27.64-24.45v21.45h-21.45c1.37-11.19,10.26-20.09,21.45-21.45Zm-21.45,27.45h23.21l16.4,16.4c-4.18,3.28-9.45,5.24-15.16,5.24-12.57,0-22.97-9.46-24.45-21.64Zm49.1-3c0,5.71-1.96,10.98-5.24,15.16l-16.4-16.4v-23.21c12.18,1.49,21.64,11.88,21.64,24.45Zm62.41,43.23h-46.35l-.57.72-.89-.72H35.3v-88.59h125.87v10.45h6v-16.45h-8.09V23.64h-24.4v53.77h-7.37v-42.27h-24.4v42.27h-7.37v-30.89h-24.4v30.89h-7.37v-19.5h-24.4v19.5h-10.04v100.59h137.87v-40.02l-6,6.86v27.17Zm-20.5-142.36h12.4v47.77h-12.4V29.64Zm-31.78,11.51h12.4v36.27h-12.4v-36.27Zm-31.78,11.38h12.4v24.89h-12.4v-24.89Zm-31.78,11.38h12.4v13.5h-12.4v-13.5Zm139.96,37.95v23.75h-6v-13.64l-27.96,31.95-14.63-11.97-23.7,29.52-4.68-3.76,27.49-34.25,14.83,12.13,24.28-27.74h-13.77v-6h24.15Zm-73.86,6.11c0,5.02,4.09,9.11,9.11,9.11s9.11-4.09,9.11-9.11-4.09-9.11-9.11-9.11-9.11,4.09-9.11,9.11Zm12.22,0c0,1.72-1.4,3.11-3.11,3.11s-3.11-1.4-3.11-3.11,1.4-3.11,3.11-3.11,3.11,1.4,3.11,3.11Zm9.92,0c0,5.02,4.09,9.11,9.11,9.11s9.11-4.09,9.11-9.11-4.09-9.11-9.11-9.11-9.11,4.09-9.11,9.11Zm12.22,0c0,1.72-1.4,3.11-3.11,3.11s-3.11-1.4-3.11-3.11,1.4-3.11,3.11-3.11,3.11,1.4,3.11,3.11Z"/>
</svg>