<?xml version="1.0" encoding="UTF-8"?>
<svg id="Layer_1" data-name="Layer 1" xmlns="http://www.w3.org/2000/svg" xmlns:xlink="http://www.w3.org/1999/xlink" viewBox="0 0 200 200">
  <defs>
    <style>
      .cls-1 {
        fill: url(#linear-gradient);
      }
    </style>
    <linearGradient id="linear-gradient" x1="30.93" y1="100" x2="169.07" y2="100" gradientUnits="userSpaceOnUse">
      <stop offset="0" stop-color="#3ac4de"/>
      <stop offset="1" stop-color="#374a9e"/>
    </linearGradient>
  </defs>
  <path class="cls-1" d="m160.78,63.28h-18.96v-8.75c0-8.88-7.23-16.11-16.11-16.11h-51.42c-8.88,0-16.11,7.23-16.11,16.11v8.75h-18.96c-4.57,0-8.3,3.72-8.3,8.3v81.69c0,4.57,3.72,8.3,8.3,8.3h121.55c4.58,0,8.3-3.72,8.3-8.3v-81.69c0-4.57-3.72-8.3-8.3-8.3Zm-96.59-8.75c0-5.57,4.53-10.11,10.11-10.11h51.42c5.57,0,10.11,4.53,10.11,10.11v8.75h-7.65v-7.3c0-3.43-2.79-6.22-6.22-6.22h-43.9c-3.43,0-6.22,2.79-6.22,6.22v7.3h-7.65v-8.75Zm57.98,8.75h-44.33v-7.3c0-.12.1-.22.22-.22h43.9c.12,0,.22.1.22.22v7.3Zm40.91,89.99c0,1.27-1.03,2.3-2.3,2.3H39.22c-1.27,0-2.3-1.03-2.3-2.3v-60.7h8.33v-6h-8.33v-14.99c0-1.27,1.03-2.3,2.3-2.3h121.55c1.27,0,2.3,1.03,2.3,2.3v14.99h-8.26v6h8.26v60.7Zm-53.04-66.7h12.59v6h-46.03v-6h33.44Zm-56.66,15.64h16.81v-25.28h-16.81v25.28Zm6-19.28h4.81v13.28h-4.81v-13.28Zm70.44,19.28h16.81v-25.28h-16.81v25.28Zm6-19.28h4.81v13.28h-4.81v-13.28Zm-44.99,18.6v37.59l10.84-4.41,4.82,11.64,5.54-2.29-4.8-11.61,10.32-4.2-26.72-26.72Zm6,14.49l10.08,10.08-10.08,4.1v-14.19Z"/>
</svg>