<?xml version="1.0" encoding="UTF-8"?>
<svg id="Layer_1" data-name="Layer 1" xmlns="http://www.w3.org/2000/svg" xmlns:xlink="http://www.w3.org/1999/xlink" viewBox="0 0 200 200">
  <defs>
    <style>
      .cls-1 {
        fill: url(#linear-gradient);
      }
    </style>
    <linearGradient id="linear-gradient" x1="58.5" y1="101" x2="141.5" y2="101" gradientUnits="userSpaceOnUse">
      <stop offset="0" stop-color="#3ac4de"/>
      <stop offset="1" stop-color="#374a9e"/>
    </linearGradient>
  </defs>
  <path class="cls-1" d="m132.04,87.57v-14.1c0-17.67-14.37-32.04-32.04-32.04s-32.04,14.37-32.04,32.04v14.1h-9.46v73h83v-73h-9.46Zm-58.07-14.1c0-14.36,11.68-26.04,26.04-26.04s26.04,11.68,26.04,26.04v14.1h-4.6v-13.71c0-11.82-9.62-21.43-21.43-21.43s-21.43,9.62-21.43,21.43v13.71h-4.6v-14.1Zm41.47,14.1h-30.87v-13.71c0-8.51,6.92-15.43,15.43-15.43s15.43,6.92,15.43,15.43v13.71Zm20.06,67h-71v-61h71v61Zm-46-9.95h20.75l-2.14-22.63c1.81-2.02,2.83-4.63,2.83-7.39,0-6.1-4.96-11.07-11.07-11.07s-11.07,4.96-11.07,11.07c0,2.76,1.01,5.37,2.83,7.39l-2.14,22.63Zm10.38-35.09c2.79,0,5.07,2.27,5.07,5.07,0,1.52-.68,2.95-1.86,3.92l-1.23,1.01,1.8,19.09h-7.56l1.8-19.1-1.23-1.01c-1.18-.97-1.85-2.4-1.85-3.92,0-2.79,2.27-5.07,5.07-5.07Z"/>
</svg>