<?xml version="1.0" encoding="UTF-8"?>
<svg id="Layer_1" data-name="Layer 1" xmlns="http://www.w3.org/2000/svg" xmlns:xlink="http://www.w3.org/1999/xlink" viewBox="0 0 200 200">
  <defs>
    <style>
      .cls-1 {
        fill: url(#linear-gradient);
      }

      .cls-2 {
        fill: url(#linear-gradient-2);
      }
    </style>
    <linearGradient id="linear-gradient" x1="38.93" y1="98.98" x2="150.93" y2="98.98" gradientUnits="userSpaceOnUse">
      <stop offset="0" stop-color="#3ac4de"/>
      <stop offset="1" stop-color="#374a9e"/>
    </linearGradient>
    <linearGradient id="linear-gradient-2" x1="84.51" y1="129.1" x2="117.15" y2="129.1" xlink:href="#linear-gradient"/>
  </defs>
  <path class="cls-1" d="m65.2,83.45l80.79-28.68-7.03-19.8-100.03,35.51,5.85,16.48v76.03h106.15v-79.54h-85.73Zm51.59,15.01l9.01-9.01h10.67l-9.01,9.01h-10.67Zm-57.47,0l9.01-9.01h10.67l-9.01,9.01h-10.67Zm28.17-9.01h10.67l-9.01,9.01h-10.67l9.01-9.01Zm19.16,0h10.67l-9.01,9.01h-10.67l9.01-9.01Zm-60-15.34l11.51,5.48-8.54,3.03-3.01-8.49.05-.02Zm65.66-13.75l-10.05,3.57-11.51-5.48,10.05-3.57,11.51,5.48Zm-3.51-8.32l10.05-3.57,11.51,5.48-10.05,3.57-11.51-5.48Zm-14.54,14.72l-10.05,3.57-11.51-5.48,10.05-3.57,11.51,5.48Zm-18.05,6.41l-10.05,3.57-11.51-5.48,10.05-3.57,11.51,5.48Zm62.12-22.08l-11.47-5.46,8.47-3.01,3,8.47Zm-87.54,38.35h9.07l-9.01,9.01h-.06v-9.01Zm94.15,67.54H50.78v-52.53h94.15v52.53Zm-8.98-58.53l8.98-8.98v8.98h-8.98Z"/>
  <path class="cls-2" d="m84.51,110.4v37.4l32.64-18.7-32.64-18.7Zm6,10.35l14.57,8.35-14.57,8.35v-16.7Z"/>
</svg>