<?xml version="1.0" encoding="UTF-8"?>
<svg id="Layer_1" data-name="Layer 1" xmlns="http://www.w3.org/2000/svg" xmlns:xlink="http://www.w3.org/1999/xlink" viewBox="0 0 200 200">
  <defs>
    <style>
      .cls-1 {
        fill: url(#linear-gradient);
      }
    </style>
    <linearGradient id="linear-gradient" x1="31.77" y1="101.24" x2="168.24" y2="101.24" gradientUnits="userSpaceOnUse">
      <stop offset="0" stop-color="#3ac4de"/>
      <stop offset="1" stop-color="#374a9e"/>
    </linearGradient>
  </defs>
  <path class="cls-1" d="m140.95,100.97c-8.27,0-15-6.73-15-15s6.73-15,15-15,15,6.73,15,15-6.73,15-15,15Zm0-23.99c-4.96,0-9,4.04-9,9s4.04,9,9,9,9-4.04,9-9-4.04-9-9-9Zm-36.29,60.33H37.77V55.68h100.19v7.6h6v-13.6H31.77v93.63h72.9v-6Zm63.57-1.34c0-7.28-2.86-14.08-8.05-19.14-5.19-5.06-12.05-7.74-19.26-7.56h-32.97l-14.05-14.05c-1.78-1.78-4.15-2.77-6.68-2.77s-4.89.98-6.68,2.77c-1.78,1.78-2.77,4.16-2.77,6.68s.98,4.89,2.77,6.68l19.56,19.56h14.88c-.87,2.71-1.33,5.56-1.33,8.41v16.24h6v-16.24c0-3.48.86-6.94,2.49-9.99l2.35-4.41h-21.9s-17.81-17.81-17.81-17.81c-.65-.65-1.01-1.51-1.01-2.43s.36-1.78,1.01-2.44c1.3-1.3,3.57-1.3,4.87,0l15.8,15.8h35.53c5.63-.13,10.98,1.94,15,5.86,4.02,3.92,6.23,9.19,6.23,14.84v16.82h6v-16.82Zm-55.28-70.22H48.96v6h64v-6Zm0,13.87H48.96v6h64v-6Zm-46,13.87h-18v6h18v-6Zm0,13.87h-18v6h18v-6Zm0,13.87h-18v6h18v-6Z"/>
</svg>