<?xml version="1.0" encoding="UTF-8"?>
<svg id="Layer_1" data-name="Layer 1" xmlns="http://www.w3.org/2000/svg" xmlns:xlink="http://www.w3.org/1999/xlink" viewBox="0 0 200 200">
  <defs>
    <style>
      .cls-1 {
        fill: url(#linear-gradient);
      }
    </style>
    <linearGradient id="linear-gradient" x1="31.39" y1="98.25" x2="173.26" y2="98.25" gradientUnits="userSpaceOnUse">
      <stop offset="0" stop-color="#3ac4de"/>
      <stop offset="1" stop-color="#374a9e"/>
    </linearGradient>
  </defs>
  <path class="cls-1" d="m173.26,38.83l-20.19-10.86-9.63,17.9h0s-36.5,67.85-36.5,67.85l-1.71,3.2-.21,2.58-2.06,25.82,20.42-15.95,2.02-1.58,1.73-3.21,36.49-67.85h0s9.63-17.9,9.63-17.9Zm-17.75-2.73l9.62,5.18-3.95,7.34-3.59-1.93-6.03-3.24,3.94-7.33Zm-45.48,96.09l.77-9.59,6.81,3.67-7.58,5.92Zm11.83-10.45l-9.63-5.18,36.5-67.84,3.78,2.03,5.84,3.14-36.49,67.85Zm-43.61-17.11c-13.04,14.19-26.52,28.85-26.52,43.55,0,7.05,2.79,11.4,8.52,13.3,11.64,3.86,30.91-3.68,37.36-12.34l4.81,3.58c-6.31,8.46-21.77,15.78-35.06,15.78-3.17,0-6.22-.42-9-1.34-8.14-2.7-12.63-9.45-12.63-18.99,0-17.03,14.29-32.58,28.1-47.61,10.67-11.61,20.76-22.58,22.71-32.65,2.48-12.74-5.5-18.93-12.63-21.87-15.39-6.36-37.9-2.66-44.61,7.33-5.06,7.53,1.06,16.38,7.09,22.48l-4.27,4.22c-6.22-6.3-15.51-18.58-7.8-30.05,8.22-12.23,33.92-16.95,51.88-9.52,12.81,5.29,18.73,15.71,16.23,28.56-2.28,11.74-12.92,23.31-24.19,35.57Z"/>
</svg>