<?xml version="1.0" encoding="UTF-8"?>
<svg id="Layer_1" data-name="Layer 1" xmlns="http://www.w3.org/2000/svg" xmlns:xlink="http://www.w3.org/1999/xlink" viewBox="0 0 200 200">
  <defs>
    <style>
      .cls-1 {
        fill: url(#linear-gradient);
      }
    </style>
    <linearGradient id="linear-gradient" x1="44.22" y1="100" x2="155.78" y2="100" gradientUnits="userSpaceOnUse">
      <stop offset="0" stop-color="#3ac4de"/>
      <stop offset="1" stop-color="#374a9e"/>
    </linearGradient>
  </defs>
  <path class="cls-1" d="m100.45,57.33c-19.58-.22-36.08,15.47-36.77,35.02-.4,11.13,4.38,21.88,12.84,29.05v10.3c-.01,2.45.94,4.75,2.67,6.49s4.03,2.69,6.48,2.69h28.65c2.45,0,4.75-.95,6.48-2.69,1.73-1.73,2.68-4.04,2.68-6.49v-10.3c8.19-6.93,12.85-16.96,12.85-27.73,0-19.8-16.1-36.1-35.89-36.34Zm18.19,60.28l-1.16.9v13.19c.01.85-.32,1.64-.92,2.24-.6.6-1.39.93-2.24.93h-28.65c-.85,0-1.64-.33-2.24-.93-.6-.6-.93-1.39-.93-2.24v-13.19s-1.15-.9-1.15-.9c-7.67-5.98-12.04-15.34-11.69-25.05.58-16.2,14.15-29.24,30.34-29.24.12,0,.25,0,.37,0,16.52.2,29.97,13.81,29.97,30.34,0,9.41-4.27,18.14-11.71,23.94Zm-5.34,25.86h-26.59c-2.7,0-4.9,2.2-4.9,4.9v10.74c0,2.7,2.2,4.9,4.9,4.9h26.59c2.7,0,4.9-2.2,4.9-4.9v-10.74c0-2.7-2.2-4.9-4.9-4.9Zm-1.1,14.55h-24.4v-8.55h24.4v8.55Zm1.86-73.5h-2.71c-4.3,0-7.8,3.5-7.8,7.8v39.19h6v-28.68h4.51c4.3,0,7.8-3.5,7.8-7.8v-2.71c0-4.3-3.5-7.8-7.8-7.8Zm1.8,10.51c0,.99-.81,1.8-1.8,1.8h-4.51v-4.51c0-.99.81-1.8,1.8-1.8h2.71c.99,0,1.8.81,1.8,1.8v2.71Zm-27.47-10.51h-2.71c-4.3,0-7.8,3.5-7.8,7.8v2.71c0,4.3,3.5,7.8,7.8,7.8h4.51v28.68h6v-39.19c0-4.3-3.5-7.8-7.8-7.8Zm-4.51,10.51v-2.71c0-.99.81-1.8,1.8-1.8h2.71c.99,0,1.8.81,1.8,1.8v4.51h-4.51c-.99,0-1.8-.81-1.8-1.8Zm19.12-45.19h-6v-13.85h6v13.85Zm-31.19,10.13l-8.14-11.21,4.85-3.53,8.14,11.21-4.85,3.53Zm-25.74,13.02l13.17,4.28-1.85,5.71-13.17-4.28,1.85-5.71Zm11.32,31.37l1.85,5.71-13.17,4.28-1.85-5.71,13.17-4.28Zm85.22,0l13.17,4.28-1.85,5.71-13.17-4.28,1.85-5.71Zm0-21.38l-1.85-5.71,13.17-4.28,1.85,5.71-13.17,4.28Zm-14.42-23l-4.85-3.53,8.14-11.21,4.85,3.53-8.14,11.21Z"/>
</svg>