<?xml version="1.0" encoding="UTF-8"?>
<svg id="Layer_1" data-name="Layer 1" xmlns="http://www.w3.org/2000/svg" xmlns:xlink="http://www.w3.org/1999/xlink" viewBox="0 0 200 200">
  <defs>
    <style>
      .cls-1 {
        fill: url(#linear-gradient);
      }
    </style>
    <linearGradient id="linear-gradient" x1="54.2" y1="103.01" x2="142.2" y2="103.01" gradientUnits="userSpaceOnUse">
      <stop offset="0" stop-color="#3ac4de"/>
      <stop offset="1" stop-color="#374a9e"/>
    </linearGradient>
  </defs>
  <path class="cls-1" d="m123.34,70.29c0,2.5-1.36,4.79-3.55,5.98l-14.99,8.14v-6.83l12.13-6.59c.35-.19.42-.49.42-.7s-.07-.52-.42-.71l-55.53-30.17c-.14-.07-.27-.1-.38-.1-.16,0-.3.06-.41.12-.18.11-.39.31-.39.69v60.35c0,.38.21.58.39.69.18.11.46.19.79.02l8.34-4.53v6.83l-5.47,2.97c-1.02.56-2.14.83-3.25.83-1.2,0-2.39-.32-3.47-.96-2.08-1.24-3.33-3.42-3.33-5.85v-60.35c0-2.42,1.24-4.61,3.33-5.85,2.08-1.24,4.6-1.29,6.73-.13l55.53,30.17c2.19,1.19,3.55,3.48,3.55,5.98Zm18.86,40.87v34.32c0,3.4-1.03,6.66-2.98,9.44l-7.58,10.8c-3.07,4.38-8.11,7-13.46,7h-30.98c-5.21,0-10.16-2.51-13.25-6.7l-8.06-10.97c-2.09-2.84-3.19-6.21-3.19-9.74v-13.7c0-5.71,4.64-10.35,10.35-10.35h4.35v-36.89c0-5.71,4.64-10.35,10.35-10.35s10.35,4.64,10.35,10.35v17.4c1.32-.62,2.8-.97,4.35-.97,2.87,0,5.47,1.18,7.35,3.07,1.88-1.9,4.48-3.07,7.35-3.07s5.47,1.18,7.35,3.07c1.88-1.9,4.48-3.07,7.35-3.07,5.71,0,10.35,4.64,10.35,10.35Zm-6,13.11v-13.11c0-2.4-1.95-4.35-4.35-4.35s-4.35,1.95-4.35,4.35v13.11h-6v-13.11c0-2.4-1.95-4.35-4.35-4.35s-4.35,1.95-4.35,4.35v13.11h-6v-13.11c0-2.4-1.95-4.35-4.35-4.35s-4.35,1.95-4.35,4.35v13.11h-6v-39.89c0-2.4-1.95-4.35-4.35-4.35s-4.35,1.95-4.35,4.35v56.6h-6v-13.71h-4.35c-2.4,0-4.35,1.95-4.35,4.35v13.7c0,2.24.7,4.38,2.03,6.19l8.06,10.97c1.96,2.67,5.1,4.26,8.41,4.26h30.98c3.4,0,6.6-1.66,8.55-4.45l7.58-10.8c1.24-1.77,1.89-3.84,1.89-6v-21.21Z"/>
</svg>