<?xml version="1.0" encoding="UTF-8"?>
<svg id="Layer_1" data-name="Layer 1" xmlns="http://www.w3.org/2000/svg" xmlns:xlink="http://www.w3.org/1999/xlink" viewBox="0 0 200 200">
  <defs>
    <style>
      .cls-1 {
        fill: url(#linear-gradient);
      }
    </style>
    <linearGradient id="linear-gradient" x1="51.9" y1="100" x2="147.68" y2="100" gradientUnits="userSpaceOnUse">
      <stop offset="0" stop-color="#3ac4de"/>
      <stop offset="1" stop-color="#374a9e"/>
    </linearGradient>
  </defs>
  <path class="cls-1" d="m147.68,82.48v92.46H51.9v-92.46l30.04-30.79h8.88v6h-6.36l-26.56,27.23v84.02h83.78v-84.02l-26.56-27.23h-6.32v-6h8.85l30.04,30.79Zm-50.89-12.49V25.06h6v44.93c5.61,1.36,9.79,6.4,9.79,12.42,0,7.05-5.74,12.79-12.79,12.79s-12.79-5.74-12.79-12.79c0-6.02,4.18-11.06,9.79-12.42Zm6,6.34v6.08h-6v-6.08c-2.24,1.11-3.79,3.42-3.79,6.08,0,3.74,3.05,6.79,6.79,6.79s6.79-3.05,6.79-6.79c0-2.67-1.55-4.97-3.79-6.08Zm-2.41,46.87c-.15,1.85-.17,3.72.2,5.54.18.91.44,1.81.76,2.68.5,1.38,1.21,2.73,2.19,3.84.12.14.24.27.37.4.55.56,1.17,1.07,1.79,1.54.64.48,1.32.91,2.06,1.22.75.31,1.57.47,2.38.47.46,0,.9-.05,1.33-.15.62-.11,1.26-.34,1.89-.73.36-.22.68-.48.98-.76,1.25-1.14,2.05-2.79,2.05-4.62,0-3.46-2.8-6.26-6.25-6.26-2.49,0-4.63,1.46-5.64,3.58-.14.26-.25.53-.35.82.05-.15.04-.36.06-.52.06-.45.15-.9.26-1.34.23-.94.56-1.88,1.03-2.72.16-.28.34-.56.53-.82.1-.13.2-.25.3-.38.02-.03.04-.05.06-.07,1.94-2.42,4.66-3.9,7.63-3.83,2.66.07,5.05,1.37,6.82,3.44.13.15.26.3.38.46.14.18.28.37.41.56.12.18.23.36.34.55.26.46.47.94.69,1.42.34.74.58,1.54.75,2.6.14.71.21,1.45.23,2.2,0,.02,0,.04,0,.06,0,.06,0,.12,0,.18,0,.03,0,.06,0,.09,0,.81-.07,1.62-.24,2.42-1.11,5.72-5.96,10.13-11.97,10.73-.46.05-.92.07-1.39.07-.52,0-1.03-.03-1.53-.09-.04,0-.07,0-.1,0,0,0-.04,0-.12-.02-1.11-.14-2.2-.41-3.24-.82-.88-.34-1.74-.73-2.57-1.19-1.81-1.01-3.38-2.46-4.61-4.13-.38-.51-.78-1.01-1.1-1.57-1.01-1.77-1.86-3.22-2.74-5l-8.31,10.12h-9.77c.1-.13.2-.24.3-.35.28-.31.56-.63.85-.94.44-.49.88-.98,1.31-1.47.57-.63,1.14-1.27,1.7-1.9.67-.75,1.34-1.5,2.01-2.25.75-.84,1.5-1.67,2.24-2.51.8-.89,1.6-1.78,2.4-2.68.82-.92,1.65-1.84,2.47-2.76.82-.92,1.64-1.84,2.47-2.75.79-.89,1.59-1.77,2.38-2.66.74-.83,1.48-1.65,2.22-2.48.66-.74,1.32-1.47,1.98-2.21.55-.62,1.11-1.24,1.66-1.85l1.26-1.41c.26-.29.52-.58.79-.88.07-.08.13-.17.22-.23,0,.25-.12.55-.17.8-.11.51-.23,1.02-.34,1.53-.26,1.18-.53,2.35-.79,3.53-.16.71-.32,1.4-.39,2.12-.05.46-.09.92-.13,1.39Zm21.97,11.77c0,1.16-.15,2.27-.42,3.33.59-1.47.92-3.1.92-4.84,0-6.21-4.23-11.25-9.45-11.25-4.25,0-7.84,3.34-9.03,7.93,1.52-3.79,4.77-6.41,8.53-6.41,5.22,0,9.45,5.04,9.45,11.25Z"/>
</svg>