<?xml version="1.0" encoding="UTF-8"?>
<svg id="Layer_1" data-name="Layer 1" xmlns="http://www.w3.org/2000/svg" xmlns:xlink="http://www.w3.org/1999/xlink" viewBox="0 0 200 200">
  <defs>
    <style>
      .cls-1 {
        fill: url(#linear-gradient);
      }
    </style>
    <linearGradient id="linear-gradient" x1="32.74" y1="100.43" x2="167.3" y2="100.43" gradientUnits="userSpaceOnUse">
      <stop offset="0" stop-color="#3ac4de"/>
      <stop offset="1" stop-color="#374a9e"/>
    </linearGradient>
  </defs>
  <path class="cls-1" d="m79.73,82.39l13.83-13.83c1.34.68,2.85,1.07,4.45,1.07,5.48,0,9.95-4.46,9.95-9.95s-4.46-9.95-9.95-9.95-9.95,4.46-9.95,9.95c0,1.7.43,3.3,1.18,4.7l-13.77,13.77c-.9.9-2.11,1.4-3.38,1.4h-27.06v6h27.06c2.88,0,5.59-1.12,7.63-3.16Zm18.29-26.66c2.18,0,3.95,1.77,3.95,3.95s-1.77,3.95-3.95,3.95-3.95-1.77-3.95-3.95,1.77-3.95,3.95-3.95Zm59.34,13.06c-4.44,0-8.21,2.92-9.48,6.95h-44.83c-2.88,0-5.59,1.12-7.63,3.16l-12.27,12.27c-.9.9-2.11,1.4-3.38,1.4h-34.73v6h34.73c2.88,0,5.59-1.12,7.63-3.16l12.27-12.27c.9-.9,2.11-1.4,3.38-1.4h44.83c1.28,4.02,5.04,6.95,9.48,6.95,5.48,0,9.95-4.46,9.95-9.95s-4.46-9.95-9.95-9.95Zm0,13.89c-2.18,0-3.95-1.77-3.95-3.95s1.77-3.95,3.95-3.95,3.95,1.77,3.95,3.95-1.77,3.95-3.95,3.95Zm-24.63,7.18c-4.44,0-8.21,2.92-9.48,6.95h-16.73c-2.88,0-5.59,1.12-7.63,3.16l-4.22,4.22c-.9.9-2.11,1.4-3.38,1.4h-46.31v6h46.31c2.88,0,5.59-1.12,7.63-3.16l4.22-4.22c.9-.9,2.1-1.4,3.38-1.4h16.73c1.28,4.02,5.04,6.95,9.48,6.95,5.48,0,9.95-4.46,9.95-9.95s-4.46-9.95-9.95-9.95Zm0,13.89c-2.18,0-3.95-1.77-3.95-3.95s1.77-3.95,3.95-3.95,3.95,1.77,3.95,3.95-1.77,3.95-3.95,3.95Zm-6.36,27.47c-1.32,0-2.58.26-3.73.73l-10.2-10.2c-2.04-2.04-4.75-3.16-7.63-3.16h-59.83v6h59.83c1.28,0,2.48.5,3.38,1.4l9.8,9.8c-1,1.55-1.58,3.39-1.58,5.36,0,5.48,4.46,9.95,9.95,9.95s9.95-4.46,9.95-9.95-4.46-9.95-9.95-9.95Zm0,13.89c-2.18,0-3.95-1.77-3.95-3.95s1.77-3.95,3.95-3.95,3.95,1.77,3.95,3.95-1.77,3.95-3.95,3.95ZM32.74,63.73h6v76.06h-6V63.73Z"/>
</svg>