<?xml version="1.0" encoding="UTF-8"?>
<svg id="Layer_1" data-name="Layer 1" xmlns="http://www.w3.org/2000/svg" xmlns:xlink="http://www.w3.org/1999/xlink" viewBox="0 0 200 200">
  <defs>
    <style>
      .cls-1 {
        fill: url(#linear-gradient);
      }
    </style>
    <linearGradient id="linear-gradient" x1="63.14" y1="98.36" x2="151.83" y2="98.36" gradientUnits="userSpaceOnUse">
      <stop offset="0" stop-color="#3ac4de"/>
      <stop offset="1" stop-color="#374a9e"/>
    </linearGradient>
  </defs>
  <path class="cls-1" d="m87.62,122.6c1.92,0,3.48,1.56,3.48,3.48s-1.56,3.48-3.48,3.48-3.48-1.56-3.48-3.48,1.56-3.48,3.48-3.48Zm2.52-41.47c0-8.21,6.68-14.89,14.89-14.89s14.89,6.68,14.89,14.89-6.68,14.89-14.89,14.89-14.89-6.68-14.89-14.89Zm6,0c0,4.9,3.99,8.89,8.89,8.89s8.89-3.99,8.89-8.89-3.99-8.89-8.89-8.89-8.89,3.99-8.89,8.89Zm55.68,42.8l-4.19,4.3c-1.15-1.12-2.69-2.71-4.24-4.61-1.73,1.57-3.4,2.85-4.63,3.73.47,2.03.72,4.13.72,6.29,0,6.74-2.48,13.32-7,18.65v7.38c0,2.84-2.31,5.15-5.15,5.15h-8.96c-2.84,0-5.15-2.31-5.15-5.15v-5.51h-16.38v5.51c0,2.84-2.31,5.15-5.15,5.15h-8.96c-2.84,0-5.15-2.31-5.15-5.15v-7.38c-2.99-3.52-5.11-7.62-6.18-11.93-.14-.58-.64-.99-1.2-.99h-1.9c-2.84,0-5.15-2.31-5.15-5.15v-10.06c0-2.84,2.31-5.15,5.15-5.15h5.72c.42,0,.81-.23,1.05-.61.77-1.21,1.63-2.37,2.57-3.48-.76-3.53-1.98-6.22-3.56-7.85l-4.95-5.09h7.1c8.91,0,18.41,5.55,22.09,12.92l-5.37,2.68c-1.91-3.81-6.14-7.04-10.83-8.6.72,1.86,1.29,3.97,1.69,6.32l.25,1.47-1.02,1.09c-1.1,1.17-2.08,2.43-2.92,3.75-1.35,2.12-3.63,3.39-6.12,3.39h-4.87v8.36h1.06c3.33,0,6.21,2.28,7.02,5.55.92,3.71,2.84,7.24,5.56,10.21l.79.86v8.83h7.27v-10.67h28.38v10.67h7.27v-8.83s.79-.86.79-.86c4.06-4.43,6.21-9.78,6.21-15.49,0-13.71-12.77-24.86-28.46-24.86v-6c14.16,0,26.34,7.69,31.64,18.64,1.05-.82,2.15-1.76,3.21-2.76-2.48-4.19-3.99-8.94-2.11-13.13,1.31-2.92,4.11-4.67,7.1-4.46,3.04.22,5.51,2.38,6.44,5.63,1.27,4.44-.82,8.86-3.78,12.56,1.16,1.45,2.58,3.01,4.28,4.67Zm-6.27-15.58c-.22-.79-.63-1.26-1.1-1.29-.02,0-.04,0-.06,0-.36,0-.83.24-1.14.93-.54,1.21-.43,3.2.81,5.86,1.28-1.95,1.95-3.87,1.49-5.5ZM108.03,31.9h-6v24.89h6v-24.89Zm10.61,10.12h-6v17.77h6v-17.77Zm-21.22,0h-6v17.77h6v-17.77Z"/>
</svg>