<?xml version="1.0" encoding="UTF-8"?>
<svg id="Layer_1" data-name="Layer 1" xmlns="http://www.w3.org/2000/svg" xmlns:xlink="http://www.w3.org/1999/xlink" viewBox="0 0 200 200">
  <defs>
    <style>
      .cls-1 {
        fill: url(#linear-gradient);
      }
    </style>
    <linearGradient id="linear-gradient" x1="25.83" y1="100" x2="175.49" y2="100" gradientUnits="userSpaceOnUse">
      <stop offset="0" stop-color="#3ac4de"/>
      <stop offset="1" stop-color="#374a9e"/>
    </linearGradient>
  </defs>
  <path class="cls-1" d="m132.92,106.6c-7.42,0-13.45,6.03-13.45,13.45s6.03,13.45,13.45,13.45,13.45-6.03,13.45-13.45-6.03-13.45-13.45-13.45Zm0,20.9c-4.11,0-7.45-3.34-7.45-7.45s3.34-7.45,7.45-7.45,7.45,3.34,7.45,7.45-3.34,7.45-7.45,7.45Zm0-37.89c-23.47,0-42.57,19.1-42.57,42.57s19.1,42.57,42.57,42.57,42.57-19.1,42.57-42.57-19.1-42.57-42.57-42.57Zm-18.15,74.31c.11-9.92,8.2-17.95,18.15-17.95s18.03,8.03,18.15,17.95c-5.35,3.07-11.54,4.84-18.15,4.84s-12.79-1.77-18.15-4.84Zm41.93-3.99c-1.99-11.33-11.9-19.96-23.78-19.96s-21.79,8.64-23.78,19.96c-7.82-6.71-12.79-16.66-12.79-27.75,0-20.17,16.41-36.57,36.57-36.57s36.57,16.41,36.57,36.57c0,11.09-4.97,21.04-12.79,27.75ZM83.98,57.85c5.7,0,10.34-4.64,10.34-10.34s-4.64-10.34-10.34-10.34-10.34,4.64-10.34,10.34,4.64,10.34,10.34,10.34Zm0-14.67c2.39,0,4.34,1.95,4.34,4.34s-1.95,4.34-4.34,4.34-4.34-1.95-4.34-4.34,1.95-4.34,4.34-4.34Zm0,43.64c16.97,0,30.78-13.81,30.78-30.78s-13.81-30.78-30.78-30.78-30.78,13.81-30.78,30.78,13.81,30.78,30.78,30.78Zm-11.82-9.01c.34-6.23,5.5-11.2,11.82-11.2s11.48,4.97,11.82,11.21c-3.52,1.92-7.54,3.01-11.82,3.01s-8.3-1.09-11.82-3.01Zm11.82-46.56c13.67,0,24.78,11.12,24.78,24.78,0,6.98-2.9,13.29-7.56,17.79-2.05-7.6-8.98-13.22-17.22-13.22s-15.18,5.62-17.22,13.22c-4.66-4.51-7.56-10.82-7.56-17.79,0-13.67,11.12-24.78,24.78-24.78Zm-40.06,86.8c0-2.87,2.32-5.19,5.19-5.19s5.19,2.32,5.19,5.19-2.32,5.19-5.19,5.19-5.19-2.32-5.19-5.19Zm25.73,5.38c0-11.33-9.22-20.55-20.55-20.55s-20.54,9.22-20.54,20.55,9.22,20.54,20.54,20.54,20.55-9.22,20.55-20.54Zm-35.09,0c0-8.02,6.52-14.55,14.54-14.55s14.55,6.52,14.55,14.55c0,3.46-1.22,6.64-3.24,9.14-1.93-4.33-6.27-7.35-11.3-7.35s-9.37,3.03-11.3,7.35c-2.02-2.5-3.24-5.68-3.24-9.13Zm8.26,13.1c.51-3.01,3.13-5.32,6.28-5.32s5.77,2.3,6.28,5.32c-1.91.92-4.03,1.45-6.28,1.45s-4.38-.53-6.28-1.45Zm93.33-66.22l-13.29-7.24,2.87-5.27,16.2,8.83.94,14.82-5.99.38-.73-11.51Zm-66.7,95.35h23.94v6h-27.62l-8.54-16.75,5.35-2.73,6.87,13.47Zm-35.73-66.92l-7.88-18.01,19.33-11.91,3.15,5.11-14.89,9.17,5.79,13.23-5.5,2.41Z"/>
</svg>