<?xml version="1.0" encoding="UTF-8"?>
<svg id="Layer_1" data-name="Layer 1" xmlns="http://www.w3.org/2000/svg" xmlns:xlink="http://www.w3.org/1999/xlink" viewBox="0 0 200 200">
  <defs>
    <style>
      .cls-1 {
        fill: url(#linear-gradient);
      }
    </style>
    <linearGradient id="linear-gradient" x1="38.87" y1="100" x2="165.82" y2="100" gradientUnits="userSpaceOnUse">
      <stop offset="0" stop-color="#3ac4de"/>
      <stop offset="1" stop-color="#374a9e"/>
    </linearGradient>
  </defs>
  <path class="cls-1" d="m164.92,78.72l-.32.95-5.68-1.92.32-.95c.92-2.71.72-5.62-.54-8.18-1.27-2.57-3.46-4.48-6.17-5.4l-.95-.32,1.92-5.68.95.32c4.23,1.43,7.65,4.42,9.62,8.43,1.98,4,2.28,8.53.85,12.76Zm-125.32,27.41c-1.18,3.5-.93,7.24.7,10.55l5.38-2.66c-.93-1.87-1.07-3.99-.4-5.97.67-1.98,2.07-3.58,3.94-4.5l-2.66-5.38c-3.31,1.63-5.78,4.46-6.96,7.96Zm10.24-54.52c.9-2.67,2.79-4.83,5.32-6.07l-2.66-5.38c-8.18,4.04-11.55,13.99-7.5,22.17l5.38-2.66c-1.25-2.53-1.44-5.39-.54-8.06Zm101.83,19.77c.9,1.66,1.09,3.57.56,5.38l-2.82,9.47c-.91,3.06-3.73,5.05-6.77,5.05-.67,0-1.34-.1-2.01-.29l-15.01-4.47c-.4,1.23-1.56,2.11-2.93,2.08l-1.23-.03-.23,8.26,1.23.03c1.66.05,2.96,1.43,2.91,3.08-.05,1.63-1.38,2.92-3,2.92-.03,0-.06,0-.09,0l-15.98-.45c.85.94,1.43,2.09,1.67,3.37l1.47,7.68c.48,2.5-.43,4.94-2.18,6.54h40.75c1.66,0,3,1.34,3,3s-1.34,3-3,3h-2.34v12.24h2.34c1.66,0,3,1.34,3,3s-1.34,3-3,3h-21.06v16.13h2.43c1.66,0,3,1.34,3,3s-1.34,3-3,3H60.61c-3.9,0-7.06-3.17-7.06-7.06v-14.01c0-3.9,3.17-7.06,7.06-7.06h25.19c-.05-.35-.09-.7-.09-1.06v-10.11c0-.66.1-1.3.27-1.91l-28.58,5.48c-.19.04-.38.05-.57.05-1.41,0-2.67-1-2.94-2.44-.31-1.63.75-3.2,2.38-3.51l2.05-.39-1.88-9.77-2.05.39c-1.63.31-3.2-.75-3.51-2.38-.31-1.63.75-3.2,2.38-3.51l37.15-7.13-9.57-.27c-1.89-.05-3.64-.84-4.93-2.21-1.3-1.37-1.98-3.17-1.93-5.05l.17-6.14c.11-3.89,3.37-6.94,7.26-6.86l29.95.85-20.32-6.06c-1.59-.47-2.49-2.14-2.02-3.73s2.15-2.49,3.73-2.02l4.21,1.26,3.43-11.51-4.21-1.26c-1.06-.32-1.8-1.17-2.05-2.17l-24.2,11.24s0,0,0,0c0,0,0,0,0,0l-4.05,1.88c-.41.19-.84.28-1.26.28-1.13,0-2.21-.64-2.72-1.74-.7-1.5-.05-3.29,1.46-3.98l1.33-.62-3.11-6.69-1.33.62c-1.5.7-3.29.05-3.98-1.46-.7-1.5-.05-3.29,1.46-3.98l4.05-1.88s0,0,0,0,0,0,0,0l34.69-16.11c3.53-1.64,7.74-.1,9.38,3.43l2.21,4.76c.79,1.71.88,3.63.23,5.4-.65,1.77-1.95,3.19-3.66,3.98l-4.32,2.01,47.17,14.06c1.81.54,3.3,1.75,4.2,3.41Zm-81.53-10.07l31.97-14.85c.35-.16.49-.44.55-.6.06-.15.13-.47-.03-.81l-2.21-4.76c-.25-.53-.88-.76-1.41-.52l-31.97,14.85,3.11,6.69Zm-5.93,61.9l38.5-7.39c.58-.11.95-.67.84-1.25l-1.47-7.68c-.07-.38-.31-.59-.45-.68-.14-.09-.42-.24-.8-.16l-38.5,7.39,1.88,9.77Zm44.64,29.15v-8.14h-12.89v8.52l3.96-3.96c1.43-1.43,3.92-1.43,5.35,0l3.58,3.58Zm-6.25,2.23l-5.76,5.76h11.52l-5.76-5.76Zm-42,5.76h30.12c-.48-.64-.76-1.42-.76-2.26v-13.88h-29.36c-.59,0-1.06.48-1.06,1.06v14.01c0,.59.48,1.06,1.06,1.06Zm60.35-16.13h-6.1v13.49c0,1.01-.41,1.95-1.09,2.64h7.19v-16.13Zm18.72-18.24h-46.9c-.59,0-1.06.48-1.06,1.06v10.11c0,.59.48,1.06,1.06,1.06h46.9v-12.24Zm-24.22-37.6l-34.21-.97c-.58-.02-1.08.45-1.09,1.03l-.17,6.14c-.01.38.18.64.29.76s.36.32.74.33l34.21.97.23-8.26Zm30.94-14.15c-.08-.15-.26-.4-.63-.51l-39.61-11.81-3.43,11.51,39.61,11.81c.56.16,1.16-.15,1.32-.72l2.82-9.47c.11-.37,0-.67-.08-.81Z"/>
</svg>