<?xml version="1.0" encoding="UTF-8"?>
<svg id="Layer_1" data-name="Layer 1" xmlns="http://www.w3.org/2000/svg" xmlns:xlink="http://www.w3.org/1999/xlink" viewBox="0 0 200 200">
  <defs>
    <style>
      .cls-1 {
        fill: url(#linear-gradient);
      }
    </style>
    <linearGradient id="linear-gradient" x1="26.98" y1="102.35" x2="172.27" y2="102.35" gradientUnits="userSpaceOnUse">
      <stop offset="0" stop-color="#3ac4de"/>
      <stop offset="1" stop-color="#374a9e"/>
    </linearGradient>
  </defs>
  <path class="cls-1" d="m73.9,124.61c-.21.68-.33,1.73-.35,3.15h-7.22c.11-3.01.39-5.09.86-6.24.46-1.15,1.66-2.47,3.58-3.97l1.95-1.52c.64-.48,1.16-1.01,1.55-1.58.71-.98,1.07-2.06,1.07-3.23,0-1.35-.4-2.59-1.19-3.7-.79-1.11-2.24-1.67-4.34-1.67s-3.53.69-4.4,2.06c-.86,1.37-1.3,2.8-1.3,4.28h-7.73c.21-5.08,1.99-8.68,5.32-10.8,2.1-1.35,4.69-2.03,7.75-2.03,4.03,0,7.38.96,10.04,2.89,2.67,1.93,4,4.78,4,8.56,0,2.32-.58,4.27-1.74,5.85-.68.96-1.98,2.19-3.9,3.69l-1.9,1.47c-1.03.8-1.72,1.74-2.06,2.81Zm.21,14.54h-7.97v-7.73h7.97v7.73Zm-2.13,32.63l-15.52-15.52h-29.48v-72.94h87.8v72.94h-27.29l-15.52,15.52Zm-39-21.52h25.96l13.03,13.03,13.03-13.03h23.77v-60.94H32.98v60.94Zm118.07-66.8c-.1.3-.15.77-.16,1.41h-3.23c.05-1.35.18-2.28.38-2.8.21-.52.74-1.11,1.6-1.78l.88-.68c.29-.22.52-.45.69-.71.32-.44.48-.92.48-1.45,0-.61-.18-1.16-.53-1.66-.36-.5-1-.75-1.95-.75s-1.58.31-1.97.92c-.39.61-.58,1.25-.58,1.92h-3.46c.1-2.28.89-3.89,2.38-4.84.94-.61,2.1-.91,3.47-.91,1.8,0,3.3.43,4.5,1.29,1.19.86,1.79,2.14,1.79,3.83,0,1.04-.26,1.91-.78,2.62-.3.43-.89.98-1.75,1.65l-.85.66c-.46.36-.77.78-.92,1.26Zm.1,6.51h-3.57v-3.46h3.57v3.46Zm-.89,18.02l-8.06-8.06h-15v-37.97h45.07v37.97h-13.95l-8.06,8.06Zm-17.06-14.06h11.48l5.58,5.57,5.57-5.57h10.44v-25.97h-33.07v25.97Zm-45.99-32.38l-5.01-5.01h-9.07v-23.65h27.57v23.65h-8.49l-5.01,5.01Zm-8.07-11.01h5.55l2.52,2.52,2.52-2.52h4.97v-11.65h-15.57v11.65Zm-29.51-3.11h15.89v-6h-21.89v33.61h6v-27.61Zm104.11,68.17h-6v18.33h-25.66v6h31.66v-24.33Zm0-74.17h-45.78v6h39.78v8.17h6v-14.17Z"/>
</svg>