<?xml version="1.0" encoding="UTF-8"?>
<svg id="Layer_1" data-name="Layer 1" xmlns="http://www.w3.org/2000/svg" xmlns:xlink="http://www.w3.org/1999/xlink" viewBox="0 0 200 200">
  <defs>
    <style>
      .cls-1 {
        fill: url(#linear-gradient);
      }
    </style>
    <linearGradient id="linear-gradient" x1="39.49" y1="100" x2="160.51" y2="100" gradientUnits="userSpaceOnUse">
      <stop offset="0" stop-color="#3ac4de"/>
      <stop offset="1" stop-color="#374a9e"/>
    </linearGradient>
  </defs>
  <path class="cls-1" d="m67.4,156.55c-7.15,0-14.29-2.72-19.73-8.16-5.27-5.27-8.17-12.28-8.17-19.73s2.9-14.46,8.17-19.73c8.22-8.22,20.76-10.42,31.22-5.7l56.33-56.34,25.29,25.29-12.53,12.53-11.35-11.35-4.53,4.53,6.54,6.54-12.53,12.53-6.54-6.54-26.74,26.74c4.72,10.46,2.52,23.01-5.7,31.22-5.44,5.44-12.59,8.16-19.73,8.16Zm.04-49.79c-5.69,0-11.33,2.2-15.53,6.4-4.14,4.14-6.42,9.64-6.42,15.49s2.28,11.35,6.42,15.49c4.14,4.14,9.64,6.42,15.49,6.42s11.35-2.28,15.49-6.42c6.88-6.88,8.39-17.62,3.67-26.12l-1.1-1.98,34.11-34.11,6.54,6.54,4.05-4.05-6.54-6.54,13.02-13.02,11.35,11.35,4.05-4.05-16.81-16.81-55.22,55.22-1.98-1.1c-3.31-1.84-6.96-2.73-10.59-2.73Zm-.04,36.63c-3.94,0-7.64-1.53-10.42-4.32-5.75-5.75-5.75-15.1,0-20.85,2.78-2.78,6.49-4.32,10.42-4.32s7.64,1.53,10.42,4.32c2.78,2.78,4.32,6.49,4.32,10.42,0,3.94-1.53,7.64-4.32,10.42h0s0,0,0,0c-2.78,2.78-6.49,4.32-10.42,4.32Zm0-23.48c-2.33,0-4.53.91-6.18,2.56-3.41,3.41-3.41,8.95,0,12.36,3.41,3.41,8.95,3.41,12.36,0h0c1.65-1.65,2.56-3.85,2.56-6.18s-.91-4.53-2.56-6.18c-1.65-1.65-3.85-2.56-6.18-2.56Zm21.87-43.65l-18.67-18.67-4.24,4.24,18.67,18.67,4.24-4.24Zm10.36-32.82h-6v26.4h6v-26.4Zm-21.11,41.51h-26.4v6h26.4v-6Zm63.85,44.59l-18.67-18.67-4.24,4.24,18.67,18.67,4.24-4.24Zm-27.27-8.01h-6v26.4h6v-26.4Zm41.51-21.11h-26.4v6h26.4v-6Z"/>
</svg>