<?xml version="1.0" encoding="UTF-8"?>
<svg id="Layer_1" data-name="Layer 1" xmlns="http://www.w3.org/2000/svg" xmlns:xlink="http://www.w3.org/1999/xlink" viewBox="0 0 200 200">
  <defs>
    <style>
      .cls-1 {
        fill: url(#linear-gradient);
      }
    </style>
    <linearGradient id="linear-gradient" x1="38.53" y1="104.53" x2="160.45" y2="104.53" gradientUnits="userSpaceOnUse">
      <stop offset="0" stop-color="#3ac4de"/>
      <stop offset="1" stop-color="#374a9e"/>
    </linearGradient>
  </defs>
  <path class="cls-1" d="m160.45,91.62c0,10.07-8.2,18.27-18.27,18.27h-21.96v-6h21.96c6.77,0,12.27-5.5,12.27-12.27s-5.51-12.27-12.27-12.27c-1.35,0-2.71.23-4.04.7l-5.55,1.93,1.68-5.63c.22-.73.33-1.47.33-2.21,0-4.25-3.45-7.7-7.7-7.7-.84,0-1.67.14-2.49.42l-3.88,1.33-.09-4.1c-.24-11.03-9.41-20-20.44-20s-19.74,8.42-20.41,19.16l-.3,4.81-4.18-2.39c-3.08-1.76-6.58-2.69-10.13-2.69-11.28,0-20.45,9.18-20.45,20.46s9.18,20.45,20.45,20.45h14.94v6h-14.94c-14.59,0-26.45-11.87-26.45-26.45s11.87-26.46,26.45-26.46c3.16,0,6.29.57,9.23,1.66,2.7-11.81,13.3-20.55,25.79-20.55s24.14,9.75,26.13,22.37c.26-.02.52-.02.78-.02,7.31,0,13.31,5.76,13.68,12.98.53-.05,1.06-.07,1.59-.07,10.08,0,18.27,8.2,18.27,18.27Zm-48.04,47.59h19.42l-31.75,31.76-31.76-31.76h19.42v-52.33c-2.6-1.76-4.82-4.09-6.44-6.89l5.19-3c2.68,4.63,7.66,7.5,13,7.5s10.32-2.87,12.99-7.5l5.19,3c-1.37,2.37-3.17,4.4-5.27,6.03v53.18Zm-6,6v-55.91c-2.2.77-4.53,1.18-6.92,1.18-1.97,0-3.9-.29-5.75-.82v55.54h-10.94l17.27,17.27,17.27-17.27h-10.94Z"/>
</svg>